<?xml version="1.0" encoding="UTF-8"?>
<svg id="Layer_1" xmlns="http://www.w3.org/2000/svg" version="1.1" viewBox="0 0 250 250">
  <!-- Generator: Adobe Illustrator 29.8.3, SVG Export Plug-In . SVG Version: 2.1.1 Build 3)  -->
  <path d="M245.85,143.18c-.26-3.98-3.16-7.01-6.8-8.66-3.63-1.66-8.86-1.78-12.85-1.9-7.11-.2-14.05-.06-20.83.39,3.27-4.45,6.31-9.19,7.7-14.53,1.44-5.51.89-11.8-2.65-16.27-4.71-5.94-9.1-9.88-20.7-10.07-21.5-.36-42.72,8.24-61.65,19.1.19-2.7-.52-6.31-1.16-7.96-1.44-3.7-4.77-6.56-8.46-8.02-5.93-2.34-11.35-.97-15.38,1.42-16.79,9.94-29.2,19.98-45.45,32.27.12-.31.24-.62.36-.94,2.15-5.57,4.36-11.11,6.63-16.61,3.89-9.44,7.96-18.76,12.18-27.97,10.07-6.62,21.9-13.6,26.25-8.63.27-3.4-1.43-7.27-4.26-9.17-3.66-2.45-10.93.21-14.05,1.58-.11.05-.23.1-.35.15,1.07-2.19,2.13-4.38,3.22-6.56.91-1.83,1.85-3.72,2.11-5.83.26-2.11-.36-4.51-1.86-5.35-1.19-.66-2.64-.2-3.75.76s-1.93,2.35-2.73,3.72c-3.74,6.45-7.26,13.08-10.57,19.89-18.24,10.53-26.13,16.64-42.06,27.78-1.91-.15-3.77-.17-5.51-.04-2.83.21-6.1,1.24-6.97,3.95-.63,1.97.37,4.2,1.99,5.48,1.62,1.28,3.75,1.76,5.81,1.87,5.76.33,11.34-1.81,16.49-4.51,1.19.79,2.32,1.68,3.36,2.68,5.16,5,3.03,15.74-.45,22.03-1.95,3.53-3.95,6.24-7.18,7.88-1.59.81-3.34,1.35-5.12,1.49-1.4.12-1.92-.39-3.77-1.17,1.08,5.68,4.99,8.8,9.62,9.95,4.63,1.15,10.54.59,14.72-1.69,11.47-6.25,20.17-13.89,29.93-21.84,9.5-7.74,17.63-14.96,29.2-20.87,3.15-1.61,7.96-3.07,11.35-2.07,1.57.47,2.48,1.37,3.47,2.67.55.72.7,2.64,1.04,4.43-5.79,3.37-11,6.84-16.32,10.73-4.09,2.99-8.11,6.25-10.85,10.52-2.74,4.26-4.03,9.73-2.28,14.48,1.31,3.57,7.06,9.84,8.1,4.62.74-3.67-.28-6.19,2.8-9.33,15.63-15.9,34.81-26.47,54.12-32.67-1.68,2.03-2.68,5.16-3.65,7.11-4.31,8.65-8.62,17.29-12.93,25.94-.46.91-1.09,2.11-1.84,3.48-13.49,5.36-26.43,12.09-39.01,20.02-7.53,4.75-16.73,11.59-20.79,19.51-2.47,4.81-2.11,8.91,1.36,13.05,2.43,2.91,6.42,4.15,10.21,4.1,3.79-.06,9.9-1.19,13.48-2.44,2.03-.71,4.04-1.45,6.04-2.21-3.11,5.32-6.39,10.94-10.05,17.5-2.29,4.1-5.62,9.97-7.44,14.29-1.82,4.33-1.63,8.52.35,12.78,1.98,4.26,6.16,5.7,10.64,4.3-.44-6.71,2.35-14.56,5.14-20.68,5.28-11.62,10.6-23.1,16.21-34.38,26.6-12.18,50.32-29.15,69.07-51.69,11.69-1.25,22.73-1.39,31.33-.21,3.04.42,10.17,1.53,10,4.6-.14,2.6-3.92,4.61-6.28,5.71-2.36,1.1-4.87,3.7-3.52,5.93,3.43-.95,6.89-2.13,9.7-4.32,2.81-2.2,5.8-6.04,5.57-9.6ZM25.76,104.09c-1.33.93-2.79,1.6-3.63,1.73-.73.12-1.92-.14-1.9-.88.05-1.73,1.87-1.81,4.17-1.73.81.03,1.62.08,2.43.14-.36.25-.71.49-1.07.74ZM44.24,106.49c7.48-4.4,11.8-8.55,17.95-13.17-3.79,9.29-7.18,18.82-10.17,28.54.08-5-1.25-9.77-4.43-12.81-.99-.95-2.13-1.8-3.36-2.56ZM122.93,185.51c-7.47,2.99-12.99,5.54-21.56,7.94-2.15.6-8.41,2.49-9.98.9-1.21-1.23-1.16-3.73-.43-5.28.74-1.56,4.58-5.71,5.89-6.83,13.26-11.3,27.52-19.28,41.63-25.91-1.69,3-3.86,7.1-4.72,8.84-3.88,7.78-7.37,14.22-10.84,20.34ZM180.55,149.78c-14.7,12.48-28.47,21.95-43.63,29.48,5.04-9.48,10.38-18.78,16.18-27.84,1.35-.49,2.72-.96,4.13-1.44,9.65-3.24,20.5-5.8,31.25-7.5-2.82,2.77-5.55,5.28-7.93,7.3ZM196.69,133.77c-12.83,1.4-25.08,3.96-36.88,7.56,2.43-3.5,4.94-6.97,7.55-10.39,2.02-2.65,4.12-5.31,5.41-8.39,1.28-3.08,1.65-6.71.18-9.71-.87-1.77-2.84-3.49-4.97-4.17,7.28-2.02,14.53-3.44,21.57-4.29,5.92-.72,15.93,0,18.79,3.21,3.17,3.55.13,9.2-2.2,13.35-2.24,4-5.65,8.47-9.44,12.82Z" fill="#161616"/>
  <path d="M37.43,57.41c5.86,1.58,12.18.55,17.81-1.72,5.63-2.27,10.7-5.71,15.72-9.12,22.22-15.09,45.31-30.41,71.68-35.5,1.05-.2,2.22-.37,3.12.21,1.03.65,1.32,2.09,1,3.26-.32,1.18-1.12,2.15-1.9,3.09-7.93,9.43-17.03,19.16-18.29,31.41-.78,7.54,1.75,15.36,6.79,21.02-2.64-15.16,1.89-31.41,12-43.01,2.06-2.36,4.34-4.55,6.05-7.18,1.71-2.62,2.83-5.82,2.2-8.89-.86-4.25-4.93-7.29-9.17-8.19-4.25-.9-12.83-.41-17.04.62-30.86,7.58-53.98,25.47-81.23,41.81-2.1,1.26-4.24,2.53-6.61,3.11-2.37.59-5.06.41-7.02-1.05-1.46-1.08-3.18-4.09-5.37-3.14-2.09.9-1.4,3.67-.68,5.15,1.97,4.05,6.74,6.96,10.93,8.09Z" fill="#161616"/>
</svg>