<?xml version="1.0" encoding="UTF-8"?>
<svg id="Layer_2" data-name="Layer 2" xmlns="http://www.w3.org/2000/svg" viewBox="0 0 351.27 351.27">
  <defs>
    <style>
      .cls-1 {
        fill: none;
      }

      .cls-2 {
        fill: #161616;
      }
    </style>
  </defs>
  <g id="Layer_1-2" data-name="Layer 1">
    <g>
      <g>
        <path class="cls-2" d="M194.88,290.34c-1.71,0-3.44-.03-5.19-.09-20.08-.68-38.27-9.24-52.61-24.74-11.18-12.09-17.3-25.35-19.15-31.27-3.12-9.98-4.09-32.24,12.05-52.42,14.45-18.06,11.1-34.48,11.07-34.65-.19-.8-4.41-20.3,18.98-40.45,21.78-18.75,16.93-49.99,16.88-50.3-.16-.98.5-1.91,1.49-2.07.98-.16,1.91.5,2.07,1.48.23,1.36,5.26,33.53-18.08,53.63-21.64,18.64-17.98,36.19-17.82,36.93.17.75,3.82,18.21-11.77,37.69-15.22,19.03-14.13,40.43-11.42,49.09,1.64,5.25,7.59,18.25,18.36,29.9,13.86,14.99,30.71,22.92,50.08,23.58,45.47,1.55,73.45-18.66,73.73-18.87.8-.59,1.93-.42,2.52.38.59.8.42,1.93-.38,2.52-1.13.83-27.2,19.66-70.8,19.66Z"/>
        <path class="cls-2" d="M262.83,178.48c-6.7-42.26-28.76-52.16-50.08-61.72-15.98-7.17-31.07-13.94-37.52-33.83l3.43-1.11c5.95,18.36,19.67,24.52,35.56,31.65,21.17,9.5,45.16,20.26,52.17,64.45l-3.56.57Z"/>
        <path class="cls-2" d="M199.9,289.33l-2.52-2.58c.56-.54,55.35-54.76,34.2-98.89-21.95-45.81-14.32-69.69-13.98-70.68l3.42,1.15-1.71-.58,1.71.57c-.08.23-7.42,23.66,13.81,67.97,9.25,19.3,6.1,43.29-9.12,69.36-11.38,19.5-25.68,33.54-25.82,33.68Z"/>
        <path class="cls-2" d="M171.35,286.42c-3.77-23.49,8.45-46.38,32.68-61.23,18.69-11.46,23.33-46.86,23.38-47.22l3.58.45c-.19,1.52-4.9,37.48-25.07,49.85-22.94,14.06-34.54,35.59-31.01,57.59l-3.56.57Z"/>
        <path class="cls-2" d="M91.25,290.25c-1.59,0-3.16-.06-4.73-.19l-1.66-.14v-144.88c0-50.05,40.72-90.78,90.78-90.78s90.78,40.72,90.78,90.78v124.18h-3.61v-124.18c0-48.07-39.1-87.17-87.17-87.17s-87.17,39.1-87.17,87.17v141.53c9.53.48,19.42-1.55,29.44-6.07,16.54-7.46,27.6-23.84,28.18-41.71.23-6.96-.43-13.88-1.95-20.55l3.52-.8c1.59,6.97,2.28,14.19,2.04,21.46-.62,19.24-12.51,36.86-30.3,44.88-9.52,4.3-18.96,6.46-28.15,6.46Z"/>
        <path class="cls-2" d="M167.19,226.04c-27.57,0-44.22-28.82-44.96-30.13l3.14-1.78c.18.32,18.44,31.86,46.84,27.95,29.38-4.04,48-40.34,49.75-58.67l3.59.34c-1.84,19.32-21.61,57.61-52.85,61.9-1.88.26-3.72.38-5.51.38Z"/>
        <path class="cls-2" d="M194,234.53c-4.56-5.52-4.55-16.24-4.55-16.69l3.61.02c0,.1,0,9.87,3.72,14.38l-2.78,2.3Z"/>
        <path class="cls-2" d="M147.53,156.37c-2.71,0-4.67-.52-4.84-.57-.96-.26-1.53-1.26-1.26-2.22.26-.96,1.25-1.53,2.21-1.26h0c.07.02,7.39,1.92,12.6-2.47.76-.64,1.9-.55,2.54.22.64.76.54,1.9-.22,2.54-3.61,3.04-7.84,3.75-11.03,3.75Z"/>
        <path class="cls-2" d="M194.61,157.17c-7.67,0-13.22-4.48-13.31-4.55-.77-.63-.88-1.77-.24-2.54.63-.77,1.77-.88,2.54-.24.42.35,10.42,8.31,21.56-.05.8-.6,1.93-.44,2.53.36.6.8.44,1.93-.36,2.53-4.49,3.37-8.87,4.5-12.71,4.5Z"/>
        <path class="cls-2" d="M167.96,180.03c-.41,0-.69-.05-.76-.06-.98-.2-1.61-1.15-1.42-2.12.19-.96,1.12-1.59,2.08-1.42.07,0,.63.05,1.19-.38.57-.45,1.32-1.5,1.62-3.98.2-1.72.25-4.44.31-7.6.17-9.52.38-21.37,4.71-25.61,4.85-4.74,11.58-8.92,27.87-7.48.99.09,1.73.96,1.64,1.96-.09.99-.97,1.73-1.96,1.64-14.01-1.23-20.14,1.7-25.03,6.47-3.27,3.2-3.49,15.17-3.62,23.09-.06,3.26-.11,6.07-.33,7.96-.37,3.08-1.42,5.28-3.13,6.52-1.19.87-2.4,1.03-3.16,1.03Z"/>
        <path class="cls-2" d="M158.98,138.45c-.21,0-.43-.04-.64-.12-.09-.03-9.01-3.39-14.42-2.63-.99.13-1.9-.55-2.04-1.54-.14-.99.55-1.9,1.54-2.04,6.33-.88,15.8,2.68,16.2,2.83.93.35,1.4,1.4,1.04,2.33-.27.72-.96,1.16-1.69,1.16Z"/>
        <path class="cls-2" d="M154.2,199.47c-.14,0-.29-.02-.43-.05-1.35-.33-2.6-1.01-3.61-1.96-.54-.51-.71-1.3-.44-1.99.28-.68.94-1.13,1.67-1.13.08,0,.17,0,.25,0,1.96,0,3.9-.3,5.77-.89.23-.07.46-.15.69-.23,1.41-.47,3.01-1,4.76-.73,1.07.17,1.99.62,2.8,1.01.74.36,1.39.67,1.96.71.71.03,1.51-.32,2.43-.74.48-.22.98-.44,1.51-.63,2.78-.99,5.5-.2,7.91.5,1.44.42,2.79.81,4.12.86,1,.04,1.77.88,1.73,1.87-.04,1-.87,1.78-1.87,1.73-1.76-.07-3.4-.54-4.98-1-2.15-.62-4.01-1.16-5.7-.56-.39.14-.8.32-1.23.52-1.19.54-2.54,1.15-4.12,1.06-1.3-.07-2.38-.6-3.33-1.06-.64-.31-1.25-.61-1.79-.69-.88-.14-1.94.21-3.05.59-.25.08-.49.17-.74.24-.83.26-1.67.48-2.51.64.01.18,0,.37-.05.56-.2.82-.94,1.38-1.75,1.38Z"/>
        <path class="cls-2" d="M145.05,254.64c-25.28-20.73-16.43-50.64-16.33-50.94l3.45,1.06-1.72-.53,1.72.53c-.35,1.13-8.2,27.92,15.17,47.09l-2.29,2.79Z"/>
        <path class="cls-2" d="M146.29,242.86c-12.35-16.71-9.5-30.12-9.38-30.69l3.52.8-1.76-.4,1.76.39c-.03.12-2.55,12.46,8.76,27.75l-2.9,2.14Z"/>
        <path class="cls-2" d="M215.44,218.35l-3.6-.15c.38-9.14-3.65-19.86-3.7-19.96l3.37-1.29c.18.47,4.35,11.51,3.93,21.4Z"/>
        <path class="cls-2" d="M200.73,231.3l-3.35-1.33c5.04-12.7,2.45-21.41,2.42-21.5l3.44-1.08c.13.4,3.04,9.93-2.51,23.91Z"/>
        <path class="cls-2" d="M219.84,205.5c-1.9-15.37-2.17-25.51-2.17-25.61l3.61-.09c0,.1.27,10.09,2.15,25.26l-3.58.44Z"/>
        <path class="cls-2" d="M262.64,207.81c-10.26-7.56-17.73-19.85-21.06-34.61-3.18-14.11-2.37-28.38-1.16-40.48l3.59.36c-1.18,11.81-1.98,25.72,1.09,39.33,3.13,13.91,10.12,25.45,19.68,32.49l-2.14,2.9Z"/>
        <path class="cls-2" d="M253.59,105.01c-6.78-4.06-14.6-6.5-22.16-8.86-.92-.29-1.84-.57-2.75-.86-8.6-2.71-17.62-5.86-25.1-11.78-8.41-6.66-13.1-15.96-12.54-24.87l3.6.22c-.48,7.74,3.7,15.89,11.18,21.82,7,5.55,15.67,8.56,23.95,11.17.91.29,1.83.57,2.74.86,7.77,2.42,15.79,4.93,22.94,9.21l-1.86,3.09Z"/>
        <path class="cls-2" d="M88.36,162.89l-1.36-3.34c4.61-1.88,8.57-5.81,11.13-11.07,2.12-4.34,3.35-9.62,3.76-16.13.1-1.52.15-3.09.2-4.61.18-5.21.36-10.6,2.23-15.67,2.3-6.23,6.97-11.29,11.23-15.42.84-.82,1.7-1.62,2.55-2.43,3.5-3.31,7.12-6.74,9.83-10.68,3.65-5.33,5.05-11.14,3.84-15.94l3.5-.88c1.47,5.81-.12,12.68-4.36,18.86-2.92,4.26-6.68,7.82-10.32,11.26-.84.8-1.69,1.6-2.52,2.4-4.17,4.04-8.31,8.54-10.35,14.07-1.67,4.52-1.83,9.39-2.01,14.54-.05,1.55-.11,3.14-.2,4.72-.44,6.99-1.78,12.71-4.11,17.49-2.96,6.06-7.58,10.62-13.02,12.83Z"/>
        <path class="cls-2" d="M88.52,266.07l-1.68-3.19c8.02-4.22,13.75-13.68,15.34-25.3,1.13-8.26.33-16.85-.45-25.15-.21-2.28-.43-4.55-.6-6.83-.8-10.29-.93-22.23,4.1-32.75,2.22-4.63,5.34-8.73,8.35-12.71,3.49-4.6,6.79-8.94,8.81-14.02,1.81-4.56,2.46-9.41,3.15-14.54.55-4.1,1.12-8.35,2.34-12.43,3.43-11.46,11.51-20.58,19.33-29.39l1.52-1.71c7.7-8.71,9.54-18.23,11.29-30.73l3.57.5c-1.78,12.7-3.8,23.17-12.16,32.61l-1.52,1.72c-7.56,8.52-15.37,17.33-18.57,28.03-1.14,3.81-1.69,7.91-2.22,11.88-.69,5.12-1.4,10.42-3.37,15.39-2.2,5.54-5.8,10.28-9.29,14.87-2.91,3.83-5.92,7.78-7.97,12.08-4.67,9.75-4.52,21.1-3.76,30.91.17,2.25.39,4.51.6,6.77.8,8.51,1.62,17.3.43,25.98-1.74,12.77-8.19,23.24-17.23,28.01Z"/>
      </g>
      
    </g>
  </g>
</svg>