<?xml version="1.0" encoding="UTF-8"?>
<svg id="Layer_2" data-name="Layer 2" xmlns="http://www.w3.org/2000/svg" viewBox="0 0 351.27 351.27">
  <defs>
    <style>
      .cls-1 {
        fill: #171616;
      }

      .cls-2 {
        fill: none;
      }
    </style>
  </defs>
  <g id="Layer_1-2" data-name="Layer 1">
    <g>

      <polygon class="cls-1" points="216.5 159.24 274.71 89.23 257.9 89.23 249.24 89.23 198.26 89.23 181.98 108.77 232.89 108.77 192.6 156.92 203.19 175.26 246.88 250.87 217.06 250.87 185.41 195.68 175.15 177.92 141.46 218.09 141.46 89.23 141.46 89.23 141.46 89.23 83.26 89.23 83.26 89.23 76.62 89.23 76.62 176.71 96.15 152.91 96.15 108.77 121.92 108.77 121.92 271.84 126.2 266.73 126.2 266.76 130.8 261.24 141.46 248.51 141.46 248.44 171.92 211.88 205.66 270.41 210.8 270.41 228.27 270.41 258.17 270.41 269 270.41 280.69 270.41 216.5 159.24"/>
    </g>
  </g>
</svg>