<?xml version="1.0" encoding="UTF-8"?>
<svg id="Layer_2" data-name="Layer 2" xmlns="http://www.w3.org/2000/svg" viewBox="0 0 351.27 351.27">
  <defs>
    <style>
      .cls-1 {
        fill: #fff;
      }

      .cls-2 {
        fill: none;
      }

      .cls-3 {
        fill: #161616;
      }
    </style>
  </defs>
  <g id="Layer_1-2" data-name="Layer 1">
    <g>

      <g>
        <path class="cls-3" d="M113.24,205.17c-.77,4.81-2.38,14.84-3.17,19.98-.82,5.33-.59,5.36-1.41,10.69-.82,5.33.62,5.75-1.45,10.73-1.43-3.25-3.17-6.5-4.39-9.72-1.28-3.38-1.94-6.89-2.99-10.1-1.16-3.53-2.85-6.71-3.75-9.86-1.09-3.79-1.54-7.35-2.26-10.29-1.55-6.31,2.82-9.26-2.36-10.19-1.6,3.54-2.8,7.12-3.95,10.72-1.18,3.7-2.5,7.32-3.25,11.03-.77,3.81-.72,7.69-1.07,11.44-.36,3.89-.97,7.63-.93,11.38-1.42-2.05-2.25-4.18-3.18-7.16-.49,3.54-1.2,6.87-1.1,10.44.1,3.56.93,7.11,1.6,10.61.66,3.5,1.22,7.09,2.42,10.45,1.21,3.36,3.16,6.42,4.88,9.54,1.72,3.12,3.53,6.2,5.74,9,2.07,3.49,4.29,6.54,6.67,8.5,1.53.53,1.72.07,3.34.07,5.11,0,5.11-.38,10.23-.38s5.11-.42,10.23-.42,5.11.57,10.23.57,5.12-.02,10.23-.02,5.12-.5,10.23-.5,5.27.26,10.54.26,5.27-.26,10.54-.26,5.27.76,10.54.76,5.27-.3,10.54-.3,5.27-.24,10.54-.24,5.27.09,10.54.09,5.27.2,10.54.2c1.47,0,1.47-.11,2.95-.11,5.25,0,5.25.22,10.51.22s5.25-.35,10.51-.35c1.95,0,3.14-1.59,2.85-3.52-.74-5.3-.26-5.36-.99-10.66-.73-5.3-1.25-5.23-1.98-10.53-.73-5.3-.15-5.38-.88-10.68-.73-5.3-.63-5.31-1.36-10.61-.73-5.3-1.5-5.2-2.22-10.5-.73-5.3-.58-5.32-1.31-10.62-.69-4.99-1.62-14.35-1.59-18.83l-130.82-.83ZM207.2,238.65c-6.31,0-11.42-5.11-11.42-11.42s5.11-11.42,11.42-11.42,11.42,5.11,11.42,11.42-5.11,11.42-11.42,11.42Z"/>
        <path class="cls-3" d="M246.77,201.76c18.37-1.44,19.45-35.01,19.45-35.01l-21.27-13.71c-.1-1.07-.21-2.31-.39-4.35-.46-5.21-1.21-5.15-1.66-10.36-.46-5.21-.08-5.25-.54-10.46-.46-5.21-.57-5.2-1.03-10.41-.46-5.21-.48-5.21-.94-10.42-.46-5.21-.26-5.23-.72-10.44-.46-5.21-.95-5.17-1.41-10.38-.46-5.21.25-5.28-.21-10.49-.46-5.21-.31-5.23-.77-10.44-.46-5.21-.82-5.18-1.28-10.4-.13-1.36-1.54-1.62-2.42-.57-3.75,4.49-4.42,3.93-8.17,8.41-3.75,4.49-3.43,4.75-7.18,9.24-3.75,4.49-3.09,5.11-7.64,8.79-2.47-.92-5.79-1.79-9.88-2.25-3.18-.36-6.74-.28-10.35-.38-3.43-.1-6.96-.19-10.35-.09-3.68.11-7.19.62-10.3.95-4.52.48-8.25,1.2-10.19,2.07-4.11-3.81-3.64-4.3-7.02-8.77-3.38-4.47-3.13-4.66-6.51-9.13-3.38-4.47-3.33-4.51-6.7-8.99-.81-1.1-2.8-.73-3.01.62-.82,5.32-.62,5.35-1.44,10.68-.82,5.32-.75,5.33-1.57,10.66-.82,5.32-.68,5.35-1.5,10.67-.82,5.32-1.15,5.27-1.97,10.6-.82,5.32-.44,5.38-1.26,10.71-.82,5.32-1.36,5.24-2.18,10.56-.82,5.32-.73,5.34-1.55,10.66-.82,5.32-.29,5.41-1.11,10.73-.82,5.32-1.48,5.22-2.3,10.55-.82,5.32-.61,5.35-1.43,10.68-.82,5.32-.86,5.32-1.68,10.64-.82,5.32-1.06,5.29-1.88,10.61q-.82,5.32-1.63,10.65c-.69,4.49-.47,5.26-.88,8.58h132.86Z"/>
        <path class="cls-1" d="M227.82,131.34c0-8.7-6.67-15.75-14.9-15.75s-14.9,7.05-14.9,15.75,6.67,15.75,14.9,15.75,14.9-7.05,14.9-15.75ZM215.58,143.75c-5.6,0-10.13-4.79-10.13-10.71s4.54-10.71,10.13-10.71,10.13,4.79,10.13,10.71-4.54,10.71-10.13,10.71Z"/>
        <path class="cls-1" d="M166.34,115.59c-8.23,0-14.9,7.05-14.9,15.75s6.67,15.75,14.9,15.75,14.9-7.05,14.9-15.75-6.67-15.75-14.9-15.75ZM180.33,133.07c0,5.91-4.54,10.71-10.13,10.71s-10.13-4.79-10.13-10.71,4.54-10.71,10.13-10.71,10.13,4.79,10.13,10.71Z"/>
        <circle class="cls-1" cx="207.2" cy="227.23" r="11.42"/>
        <polygon class="cls-1" points="246.77 215.94 246.77 201.85 112.85 201.85 110.26 201.85 110.26 215.94 111.04 215.94 244.89 215.94 246.77 215.94"/>
        <path class="cls-1" d="M234.71,166.74c0,6.66,5.4,12.07,12.07,12.07s12.07-5.4,12.07-12.07h-24.13Z"/>
      </g>
    </g>
  </g>
</svg>