<?xml version="1.0" encoding="UTF-8"?>
<svg id="Layer_2" data-name="Layer 2" xmlns="http://www.w3.org/2000/svg" viewBox="0 0 351.27 351.27">
  <defs>
    <style>
      .cls-1 {
        fill: none;
      }

      .cls-2 {
        fill: #161616;
      }
    </style>
  </defs>
  <g id="Layer_1-2" data-name="Layer 1">
    <g>
      <g>
        <g>
          <path class="cls-2" d="M219.64,183.98c-.89,1.37-1.62,3.08-2.07,5-.59,2.53-.57,4.97-.05,6.88,8.86,4.69,16.38,13.92,16.38,24.51,0,15.33-14.18,27.8-29.51,27.8h-20.08c-.67,1.62-1.07,3.63-1.07,5.8s.41,4.22,1.1,5.85h20.06c21.76,0,39.46-17.7,39.46-39.46,0-16.35-10-30.41-24.21-36.39h0Z"/>
          <path class="cls-2" d="M184.12,125.29h20.26c7.19,0,14,2.75,19.15,7.64h0c3.92,4.66,5.56,7.63,5.56,7.63l10.35-10.66s-3.02-1.55-7.78-5.34h0c-7.31-7-17.03-10.94-27.27-10.94h-19.85c-.81,1.7-1.3,3.9-1.3,6.3,0,1.97.33,3.81.89,5.35h0Z"/>
          <path class="cls-2" d="M143.56,113.63c-21.76,0-39.46,17.7-39.46,39.46,0,18.77,13.17,34.51,30.74,38.49v30.11c0,12.81-2.18,19.9-2.18,19.9h15.92s-2.18-7.09-2.18-19.9v-69.54c0-12.81,2.18-19.9,2.18-19.9h-15.92s2.18,7.09,2.18,19.9v27.41c-11.59-3.61-20.8-14.11-20.8-26.46,0-15.33,14.18-27.8,29.51-27.8h24.63v55.62h-17.28c-.64,1.6-1.02,3.56-1.02,5.68,0,2.25.42,4.32,1.14,5.97h50.51v29.13c0,12.81-2.18,19.9-2.18,19.9h15.92s-2.18-7.09-2.18-19.9v-69.54c0-12.81,2.18-19.9,2.18-19.9h-15.92s2.18,7.09,2.18,19.9v28.76h-21.79v-80.49h38.37c12.81,0,19.9,2.18,19.9,2.18v-15.92s-7.09,2.18-19.9,2.18h-88.3c-12.81,0-19.9-2.18-19.9-2.18v15.92s7.09-2.18,19.9-2.18h38.37v13.22h-24.63Z"/>
          <path class="cls-2" d="M179.75,248.17v-51.22c-1.59-.66-3.55-1.05-5.67-1.06h-.21c-2.12.02-4.08.41-5.68,1.06v51.22h-24.63c-7.16,0-13.96-2.74-19.1-7.6-3.9-4.62-5.52-7.58-5.52-7.58l-10.35,10.66s3.02,1.55,7.78,5.34c0,0,0-.02.02-.02,7.3,6.95,16.97,10.85,27.18,10.85h24.59c-.29,10.98-2.14,17-2.14,17h15.92s-2.18-7.08-2.18-19.89v-8.77h0Z"/>
        </g>
        <path class="cls-2" d="M173.78,314.21c-57.23-.16-103.24-47.31-103.24-104.54V59.59c0-3.7,3-6.7,6.7-6.7h193.67c3.7,0,6.7,3,6.7,6.7v151.09c0,57.19-46.61,103.7-103.82,103.53h0ZM82.2,64.54v146.13c0,50.74,41.14,91.88,91.88,91.88h0c50.74,0,91.88-41.14,91.88-91.88V64.54H82.19h0Z"/>
      </g>
      
    </g>
  </g>
</svg>