<?xml version="1.0" encoding="UTF-8"?>
<svg id="Layer_2" data-name="Layer 2" xmlns="http://www.w3.org/2000/svg" viewBox="0 0 351.27 351.27">
  <defs>
    <style>
      .cls-1 {
        fill: none;
      }

      .cls-2 {
        fill: #161616;
      }
    </style>
  </defs>
  <g id="Layer_1-2" data-name="Layer 1">
    <g>
      
      <g>
        <path class="cls-2" d="M268.85,116.84c-4.51-2.52-10.41-.74-14.3,2.66-3.89,3.41-6.3,8.14-8.98,12.56-7.5,12.42-18.22,23.53-31.93,28.26-12.86,4.43-28.53,2.09-37.9-7.57.09-.06.19-.11.28-.18,1.21-.93,2.33-2.24,3.08-3.5.47-.8.02-1.81-.88-2.02-2.77-.63-6.71-.95-9.06.16-.76.36-1.17,1.27-.89,2.07.48,1.37,1.98,2.64,3.43,3.5.09.05.18.09.28.14-6.91,6.96-17.34,10.32-27,8.48-10.63-2.03-19.46-11.41-24.31-21.08-3.91-7.8-4.75-14.36-10.69-19.32-4.64-3.87-12.57-3.38-16.13,1.5-5.54,7.58.32,19.55,2.44,27.41,5.73,21.27,8.25,33.75,17.65,57.63.24-6.47,3.41-9.45,6.78-11.93,5.92-4.37,12.62-4.05,20.34-2.33,11.62,2.6,22.22,9.48,29.33,19.03,8.3-8.91,17.09-18.15,28.61-22.11,11.52-3.96,26.54-.6,31.63,10.47,12.36-19.08,24.73-38.15,37.09-57.23,2.73-4.2,5.51-8.56,6.34-13.51.83-4.94-.83-10.66-5.2-13.1Z"/>
        <path class="cls-2" d="M142.66,125.92c-.83,2.66-3.2,12.96,4.08,13.53,2.81.22,10.09-8.48,12.37-10.21,3.13-2.37,6.6-5.51,6.12-9.4-.32-2.6-2.51-4.72-5.01-5.47-2.51-.75-7.3.33-9.71,1.34-4.66,1.95-6.33,5.4-7.84,10.22Z"/>
        <path class="cls-2" d="M194.77,130.98c2.51,1.9,10.52,11.46,13.6,11.22,8-.62,5.4-11.94,4.48-14.87-1.66-5.3-3.5-9.1-8.62-11.24-2.65-1.11-7.92-2.29-10.68-1.47-2.76.82-5.16,3.16-5.51,6.02-.53,4.28,3.29,7.73,6.73,10.34Z"/>
        <path class="cls-2" d="M124.73,91.48c5.92,2.33,16.05-6.3,19.82-10.13,2.64-2.69,5.04-6.51,3.69-10.03-1.12-2.92-4.4-4.39-7.48-4.95-7-1.27-14.94,1.05-18.94,6.93-3.1,4.55-3.5,15.66,2.91,18.19Z"/>
        <path class="cls-2" d="M231.8,89.13c2.73,2.81,6.45,5.86,10.11,4.47,2.47-.94,3.79-3.59,4.64-6.09,1.39-4.07,2.15-8.51,1.04-12.67-1.62-6.03-7.46-10.67-13.7-10.88-4.98-.12-13.53,3.68-14.2,9.5-.66,5.76,8.51,11.97,12.12,15.67Z"/>
        <path class="cls-2" d="M153.77,261.92c-1.27-.8-2.65-1.73-3.72-2.59-7.33-5.87-10.86-8.26-16.9-15.45-1.85-2.21-6.94-8.16-9.1-12.01,0,0-5.02,2.13-6.64,2.49-2.23.49-4.6.44-6.87.25-4.27-.36-8.69-1.14-12.75.24-3.35,1.14-6.16,3.79-7.5,7.07-1.37,3.35-1.22,7.1-.96,10.71.32,4.38.79,8.75,1.39,13.1.88,6.46,2.17,16.46,9.08,19.87,4.25,2.1,9.33,1.02,13.88-.32,13.69-4.02,27.93-11.17,40.12-19.1,1.56-1.01,1.54-3.28-.03-4.28Z"/>
        <path class="cls-2" d="M241.78,230.92c-4.06-1.38-8.48-.6-12.75-.24-2.27.19-4.63.25-6.87-.25-1.63-.36-5.15-2.4-5.15-2.4-2.35,2.91-11.66,12.42-13.66,14.49-4.55,4.74-8.46,8.72-16.57,14.5-.02.01-.03.02-.05.03-2.22,1.58-2.18,4.92.1,6.39,12.06,7.8,25.26,13.85,39.04,17.9,4.55,1.34,9.62,2.41,13.88.32,6.92-3.41,8.2-13.41,9.08-19.87.59-4.36,1.07-8.72,1.39-13.1.26-3.61.41-7.36-.96-10.71-1.34-3.28-4.15-5.92-7.5-7.07Z"/>
      </g>
    </g>
  </g>
</svg>