<?xml version="1.0" encoding="UTF-8"?>
<svg id="Layer_2" data-name="Layer 2" xmlns="http://www.w3.org/2000/svg" viewBox="0 0 351.27 351.27">
  <defs>
    <style>
      .cls-1 {
        fill: none;
      }

      .cls-2 {
        fill: #161616;
      }
    </style>
  </defs>
  <g id="Layer_1-2" data-name="Layer 1">
    <g>
      <g>
        <path class="cls-2" d="M205.28,101.11h5.59c-3.18.77-5.41,3.62-5.41,6.88v33.47c-3.09,1.27-5.27,4.3-5.27,7.85h14.68v-14.61h11.19l1.23-2.99v9.12h0c-4.68,0-8.48,3.8-8.48,8.48h15.28c16,0,29.09-13.09,29.09-29.09v-8.21c0-.16-.22-.17-.25-.02-1.32,8.34-9.16,16-13.52,16l-23.56-37.66v-.09h9.77l-8.41-13.33h-16.66l-9.76,9.76h-9.97c0,7.98,6.47,14.44,14.44,14.44Z"/>
        <path class="cls-2" d="M97.25,229.65l-.31,35.99c-5.04,0-9.13,5.45-9.13,10.49l22.95.12,2.97-46.6h-16.48Z"/>
        <path class="cls-2" d="M274.85,141.1v-7.67c0-.4-.54-.46-.67-.07-4.74,13.9-22.53,23.44-36.82,23.44h-109.33c45.41,0,49.36-46.15,49.36-46.15h-34.06l-30.11-25.83v25.83l-29.37-25.83v109.24c0,23.34,14.66,32.86,26.3,35.26,1.93.36,4.36.64,6.02.64,9.44.07,17.08,7.71,17.15,17.15l.12,18.51c-5.04,0-9.13,5.45-9.13,10.49l22.95.12,3.48-45.9h49.08s0,.01,0,.02h11.37l-11.22,2.95c1.58,16.5,15.76,32.32,23.79,32.32-5.86,0-10.61,4.75-10.61,10.61h20.73v-36.13c4.06,13.8,15.54,25.52,22.46,25.52-5.86,0-10.61,4.75-10.61,10.61h20.73v-59.23c0-16.84-6.92-32.06-18.06-42.99,15.12-3.33,26.43-16.8,26.43-32.92Z"/>
        <circle class="cls-2" cx="184.96" cy="140.83" r="7.9" transform="translate(-47.5 143.65) rotate(-37.98)"/>
      </g>
      
    </g>
  </g>
</svg>