<?xml version="1.0" encoding="UTF-8"?>
<svg id="Layer_2" data-name="Layer 2" xmlns="http://www.w3.org/2000/svg" viewBox="0 0 351.27 351.27">
  <defs>
    <style>
      .cls-1 {
        fill: none;
      }

      .cls-2 {
        fill: #161616;
      }
    </style>
  </defs>
  <g id="Layer_1-2" data-name="Layer 1">
    <g>
      <g>
        <g>
          <path class="cls-2" d="M168.34,202.34c7.12,0,12.91-5.79,12.91-12.91s-5.79-12.91-12.91-12.91-12.91,5.79-12.91,12.91,5.79,12.91,12.91,12.91ZM168.34,181.2c4.53,0,8.22,3.69,8.22,8.22s-3.69,8.22-8.22,8.22-8.22-3.69-8.22-8.22,3.69-8.22,8.22-8.22Z"/>
          <circle class="cls-2" cx="168.24" cy="189.36" r="3.52"/>
          <path class="cls-2" d="M227.51,106.59s0-.02,0-.02,0-.02,0-.02v-2.32h-.05c-1.23-31.31-27.09-56.4-58.69-56.4s-58.74,26.35-58.74,58.74c0,.79.02,1.58.05,2.37v50.58h-4.79v35.81h27.07v-9.79h15.82v30.3h39.35v-30.3h16.24v9.79h27.8v-36.13h-4.06v-52.61ZM152.34,167.11v-4.14c5.21,1.52,10.72,2.34,16.42,2.34,4.96,0,9.79-.62,14.39-1.79v3.58h-30.82ZM125.65,74.26c3.12,2.35,7.68,4.34,13.64,5.95.78.21,1.58.41,2.4.6-1.73,7.13-2.75,15.02-2.96,23.2h-23.81c.52-11.13,4.43-21.38,10.73-29.75ZM166.34,108.85v20.61c-.87.02-1.75.04-2.64.07-6.15.23-12.07.86-17.46,1.86-1.67-6.87-2.59-14.54-2.7-22.54h22.8ZM163.89,134.38c.82-.03,1.64-.05,2.45-.07v25.58c-8.58-2.58-13.77-11-16.69-17.96-.78-1.85-1.48-3.81-2.12-5.86,4.97-.89,10.52-1.48,16.35-1.7ZM171.19,159.92v-25.62c6.68.11,13.06.74,18.9,1.82-.63,2.03-1.33,3.97-2.1,5.81-2.93,6.99-8.15,15.45-16.8,17.99ZM171.19,129.45v-20.6h22.91c-.11,8-1.04,15.67-2.71,22.55-6.22-1.18-13.03-1.85-20.2-1.95ZM198.91,104.01c-.21-8.19-1.23-16.1-2.96-23.23,6.2-1.5,11.7-3.56,16.23-6.12,6.12,8.3,9.91,18.4,10.43,29.35h-23.69ZM194.07,104.01h-22.88v-20.3c7.11-.11,13.85-.76,20.03-1.92,1.66,6.79,2.64,14.35,2.85,22.22ZM171.19,78.86v-25.76c7.69,1.99,12.69,9.5,15.61,15.78,1.17,2.51,2.21,5.26,3.12,8.19-5.79,1.06-12.11,1.67-18.73,1.79ZM166.34,53.13v25.72c-.82-.02-1.63-.04-2.45-.07-5.77-.22-11.25-.8-16.17-1.67.91-2.94,1.95-5.7,3.13-8.23,2.91-6.25,7.87-13.72,15.5-15.75ZM163.71,83.62c.88.03,1.76.06,2.64.07v20.32h-22.77c.21-7.86,1.19-15.42,2.85-22.21,5.34.97,11.2,1.59,17.28,1.82ZM138.7,108.85c.11,8.32,1.08,16.33,2.81,23.54-.75.18-1.5.37-2.23.56-5.95,1.6-10.52,3.6-13.63,5.94-6.35-8.44-10.27-18.8-10.74-30.04h23.79ZM142.78,137.05c.72,2.36,1.52,4.62,2.41,6.75,2.63,6.28,5.94,11.28,9.81,14.89-10.27-2.72-19.35-8.39-26.26-16.06,3.02-2.22,7.93-4.14,14.04-5.58ZM182.69,158.65c3.85-3.61,7.14-8.58,9.77-14.84.88-2.11,1.68-4.34,2.39-6.67,5.43,1.31,10.26,3.06,14.23,5.19-6.91,7.79-16.04,13.56-26.39,16.33ZM212.17,138.49c-4.49-2.53-9.92-4.57-16.05-6.07,1.74-7.22,2.7-15.24,2.82-23.57h23.68c-.46,11.06-4.27,21.27-10.45,29.64ZM209.08,70.84c-4.02,2.15-8.91,3.91-14.42,5.23-1-3.3-2.16-6.4-3.48-9.23-2.37-5.08-5.16-9.2-8.31-12.29,10.27,2.79,19.34,8.55,26.21,16.29ZM154.81,54.5c-3.17,3.1-5.98,7.23-8.36,12.34-1.33,2.85-2.5,5.97-3.5,9.31-6.2-1.44-11.18-3.38-14.22-5.63,6.87-7.63,15.89-13.28,26.09-16.02ZM127.67,190.64h-17.7v-26.44h17.7v26.44ZM114.76,159.51v-29.84c6.23,14.5,18.13,26.01,32.9,31.72v5.93h-15.3v-7.81h-17.59ZM201.9,180.86h-19.05v30.3h-29.98v-30.3h-19.47v-8.85h68.5v8.85ZM187.84,167.32v-5.19c15.75-5.42,28.48-17.36,34.98-32.58v29.64h-19.05v8.12h-15.93ZM226.88,190.64h-18.43v-26.76h18.43v26.76Z"/>
          <path class="cls-2" d="M246.07,107.64c-.51-19.91-8.5-38.56-22.64-52.7-14.62-14.62-34.06-22.67-54.74-22.67s-40.11,8.05-54.73,22.67c-14.14,14.14-22.13,32.79-22.64,52.7h-.03v115.87h-.2v4.07h155.01v-119.93h-.03ZM242.03,223.51H95.35v-113.83c0-40.44,32.9-73.34,73.34-73.34s73.34,32.9,73.34,73.34v113.83Z"/>
        </g>
        <g>
          <path class="cls-2" d="M118.44,245.13h-8.49v30.6h-10.23v-30.6h-8.49v-9.09h27.22v9.09Z"/>
          <path class="cls-2" d="M147.56,275.73h-10.23v-13.36h-5.81v13.36h-10.23v-39.69h19.27c4.52,0,7,1.79,7,6.51v10.18c0,2.98-1.39,4.42-3.68,5.12v.1c2.24.3,3.68,1.69,3.68,4.67v13.11ZM137.32,253.33v-8.2h-5.81v8.2h5.81Z"/>
          <path class="cls-2" d="M161.81,275.73h-10.23v-39.69h10.23v39.69Z"/>
          <path class="cls-2" d="M189.18,275.73h-16.54c-4.52,0-6.81-1.69-6.81-6.26v-27.12c0-4.57,2.29-6.31,6.81-6.31h16.54v9.09l-13.12.05v21.46h13.12v9.09Z"/>
          <path class="cls-2" d="M218.49,275.73h-10.23v-14.31h-5.81v14.31h-10.23v-39.69h10.23v16.34h.3l5.51-16.34h10.18l-6.51,17.44.65-.05c2.93,0,5.91,2.43,5.91,6.01v16.29Z"/>
          <path class="cls-2" d="M245.52,269.47c0,4.57-2.48,6.26-6.95,6.26h-16.74v-9.09h13.46v-6.36h-6.56c-5.61,0-6.91-2.73-6.91-6.21v-11.53c0-4.72,2.43-6.51,6.95-6.51h15.75v9.09h-12.47v6.06h6.46c4.77,0,7,1.99,7,6.76v11.53Z"/>
          <path class="cls-2" d="M117.95,309.79l-1.75-.04v1.49c0,4.06-2.18,5.55-6.06,5.55h-11.74c-3.89,0-5.98-1.49-5.98-5.55v-8.75c0-2.56,1.15-3.76,2.95-4.4v-.09c-1.75-.3-2.95-1.45-2.95-4.01v-5.72c0-3.46,2.22-5.59,6.02-5.59h12.81v7.81h-10.03v3.67l3.97.04v7.73h-3.97v7.09h6.19v-7.05h10.55v7.81Z"/>
          <path class="cls-2" d="M139.77,305.27h-9.99v11.53h-8.8v-34.12h18.79v7.81h-9.99v7h9.99v7.77Z"/>
          <path class="cls-2" d="M162.61,316.79h-19.81v-34.12h8.8v26.3h11.02v7.81Z"/>
          <path class="cls-2" d="M174.01,316.79h-8.8v-34.12h8.8v34.12Z"/>
          <path class="cls-2" d="M197.54,316.79h-14.22c-3.89,0-5.85-1.45-5.85-5.38v-23.31c0-3.93,1.96-5.42,5.85-5.42h14.22v7.81l-11.27.04v18.45h11.27v7.81Z"/>
          <path class="cls-2" d="M222.73,316.79h-8.8v-12.3h-5v12.3h-8.8v-34.12h8.8v14.05h.26l4.74-14.05h8.75l-5.59,14.99.56-.04c2.52,0,5.08,2.09,5.08,5.17v14.01Z"/>
          <path class="cls-2" d="M245.95,311.41c0,3.93-2.13,5.38-5.98,5.38h-14.39v-7.81h11.57v-5.47h-5.64c-4.82,0-5.94-2.35-5.94-5.34v-9.91c0-4.06,2.09-5.59,5.98-5.59h13.54v7.81h-10.72v5.21h5.55c4.1,0,6.02,1.71,6.02,5.81v9.91Z"/>
        </g>
      </g>
      
    </g>
  </g>
</svg>