<?xml version="1.0" encoding="UTF-8"?>
<svg id="Layer_2" data-name="Layer 2" xmlns="http://www.w3.org/2000/svg" viewBox="0 0 351.27 351.27">
  <defs>
    <style>
      .cls-1 {
        fill: none;
      }

      .cls-2 {
        fill: #161616;
      }
    </style>
  </defs>
  <g id="Layer_1-2" data-name="Layer 1">
    <g>
      
      <g>
        <path class="cls-2" d="M237.57,147.22c3.67-.84,7.15-1.69,10.65-2.41,3.57-.74,7.17-1.39,10.82-1.28,2.68.08,5.35.43,7.85,1.47,5.18,2.15,8.74,7.46,7.21,13.53-1.11,4.41-3.23,8.29-5.84,11.96-1.85,2.6-4.02,4.9-6.47,6.94-.24.2-.43.47-.73.79.27.35.5.7.78.99,4.5,4.59,8.3,9.72,11.69,15.17,2.42,3.9,4.57,7.9,6.19,12.2.43,1.14.39,2.17.18,3.29-.13.69-.53.92-1.14.81-2.4-.43-4.68-1.24-6.71-2.6-.5-.33-.85-.94-1.16-1.49-2.25-4.04-4.46-8.1-6.72-12.13-.76-1.36-1.65-2.64-2.44-3.99-1.56-2.66-3.64-4.92-5.61-7.26-.99-1.17-1.14-1.15-2.62-.49-1.03.46-2.06.93-3.13,1.3-.79.27-1.09.78-1.16,1.55-.34,3.96-.68,7.92-1.03,11.87-.31,3.47-.66,6.94-.96,10.42-.1,1.12-.05,2.26-.11,3.38-.13,2.57-1.02,3.45-3.61,2.67-1.41-.42-2.8-1.13-4-1.99-2.2-1.57-2.44-3.99-2.08-6.41.59-3.92,1.42-7.79,2.04-11.7.63-3.97,1.17-7.96,1.69-11.95.46-3.56.95-7.12,1.24-10.69.19-2.35.05-4.73.06-7.1,0-1.24-.03-2.48.02-3.71.06-1.49.62-2.07,2.08-2.02,2.73.09,4.92,1.38,6.19,3.72.6,1.09.66,2.62.57,3.91-.23,3.09-.7,6.17-1.06,9.26-.02.2.03.41.06.74.36-.07.66-.09.93-.2,3.87-1.58,7.07-4.04,9.7-7.28.68-.83,1.39-1.63,2.13-2.42,1.46-1.56,2.39-3.45,3.23-5.37,1.49-3.44-.12-7.12-3.6-8.45-2.15-.82-4.32-.67-6.5-.19-4.58,1-9.09,2.23-13.4,4.07-2.17.92-4.25,2.04-6.23,3.01-.36,2.59-.71,4.92-1.01,7.24-.48,3.78-.77,7.59-1.42,11.33-1.27,7.29-3.39,14.33-7.17,20.77-2.22,3.79-5.65,6.13-9.84,6.98-5.52,1.11-10.86.4-15.21-3.59-1.4-1.28-2.49-2.95-3.49-4.59-1.61-2.64-2.64-5.52-2.94-8.62-.17-1.71-.49-3.41-.47-5.12.05-3.38.29-6.75.45-10.13.02-.38,0-.75.02-1.13.15-4.51.24-9.02.49-13.52.13-2.45.5-4.89.83-7.33.27-1.97,2.18-3.17,4.12-2.6.91.27,1.78.71,2.63,1.16.71.38,1.34.89,2.01,1.33,2.65,1.74,3.52,4.21,2.97,7.26-.61,3.43-1.29,6.85-1.82,10.29-.37,2.38-.49,4.79-.79,7.18-.52,4.12-.67,8.25-.46,12.39.13,2.68.66,5.35,2.31,7.6,2.11,2.88,7.19,4.03,10.19.25,2.19-2.77,3.59-5.98,4.47-9.4.93-3.59,1.56-7.23,1.91-10.91.2-2.14.31-4.29.35-6.44.12-6.72.18-13.45.29-20.17.04-2.2.16-4.41.29-6.61.11-1.79,1.21-2.99,2.97-2.96,2.84.05,5.59.61,7.55,2.91.63.74.96,1.76,1.33,2.69.22.53.26,1.14.4,1.83ZM227.86,181.43c1.81-2,4.43-11.45,3.89-13.63-.56,1.07-3.91,12.62-3.89,13.63ZM199.64,161.78s-.06.06-.1.09c.09.64.29,1.28.26,1.91-.1,1.65-.3,3.29-.45,4.94-.11,1.29-.34,2.59.41,4.11.38-2.12.68-3.96,1.04-5.79.29-1.46.41-2.85-.64-4.1-.26-.31-.36-.77-.53-1.16ZM246.91,182.11c1.83.11,2.9-.26,4.15-1.39-1.02-.08-1.94,1.12-2.88.11.05-.28.1-.55.16-.88-1.58.1-.96,1.34-1.43,2.16ZM245.3,172.41l-.37-.1c-.15.29-.45.59-.44.87.07,1.43.23,2.85.38,4.47.99-1.83.61-3.54.43-5.24ZM248,150.46c1.05-.37,1.88-.65,2.96-1.03-1.71-.62-2-.51-2.96,1.03ZM231.82,175.99c-.09-.02-.18-.03-.26-.05-.24,1.17-.49,2.35-.73,3.52.11.02.22.04.33.06.22-1.18.44-2.36.67-3.53ZM233.09,147.45c-.28.91.04,1.18,2.03,1.58-.86-.67-1.43-1.11-2.03-1.58ZM201.05,181.59c-.68.72-1.24,1.31-1.92,2.04.38.04.67.16.82.07.71-.46.92-1.19,1.1-2.11ZM234.04,158.17c1.12.24,1.43-.48,1.99-1.26-1.14-.06-1.6.44-1.99,1.26ZM229.95,166.45c.32-.59.49-.91.7-1.3q-.93.07-.7,1.3ZM202.9,178.24s-.02,0-.03,0v.93s.02,0,.03,0v-.93ZM271.16,156.49c.1.02.2.04.3.05,0-.35.01-.7,0-1.06,0-.09-.1-.18-.29-.52v1.52ZM202.97,158.36c-.09-.09-.17-.18-.26-.27-.16.19-.32.38-.48.57.06.06.11.11.17.17.19-.16.38-.31.57-.47ZM229.41,190.23c-.05-.03-.11-.05-.16-.08-.08.18-.17.36-.25.53.04.02.08.04.13.06l.28-.52Z"/>
        <path class="cls-2" d="M106.12,256.61c1.87-.78,3.57-1.43,5.19-2.23.38-.19.65-.84.75-1.32.5-2.3.89-4.63,1.4-6.93.43-1.94.94-3.85,1.48-5.76.51-1.8,1.87-2.85,3.47-3.59,5.08-2.36,10.28-4.4,15.63-6.05,1.9-.58,3.78-1.21,5.69-1.75,1.42-.4,1.7-.12,1.71,1.36.01,1.66-.95,2.94-1.64,4.32-.73,1.45-2.02,2.07-3.51,2.55-3.78,1.22-7.54,2.53-11.28,3.87-2.3.82-2.87,1.52-3.33,3.98-.35,1.88-.55,3.78-.83,5.8.4-.08.76-.12,1.09-.23,2.94-1.03,5.87-2.09,8.82-3.09.8-.27,1.67-.37,2.51-.47.57-.07.94.3.9.88-.05.69-.08,1.42-.34,2.03-.48,1.13-1.12,2.2-1.71,3.29-.48.89-1.22,1.41-2.2,1.74-3.1,1.06-6.16,2.23-9.26,3.32-.86.3-1.23.73-1.32,1.72-.24,2.88-.68,5.74-.98,8.61-.1.94-.02,1.9-.02,3.07.88-.33,1.52-.56,2.16-.81,8.47-3.3,17.02-6.32,25.8-8.71,1.29-.35,2.61-.61,3.93-.83,1.78-.29,2.4.42,1.99,2.15-.72,3.06-2.35,5.36-5.33,6.59-3.43,1.42-6.85,2.85-10.25,4.31-2.32,1-4.63,2.01-6.91,3.11-5.33,2.58-10.62,5.22-15.94,7.8-.72.35-1.5.59-2.28.8-1.53.42-3-.34-3.37-1.89-.31-1.28-.68-2.61-.23-3.96.08-.25.11-.53.11-.79-.04-4.49,1.16-8.8,1.77-13.2.18-1.31.37-2.62.59-4.23-1.5.58-2.76,1-3.95,1.58-.35.17-.56.75-.72,1.19-1.66,4.58-4.25,8.66-6.94,12.68-1.85,2.76-4.43,4.85-6.87,7.01-3.78,3.33-7.73,6.5-11.81,9.45-5.73,4.15-12.09,7.21-18.54,10.06-1.67.74-2.47.47-3.66-.89-1.73-1.98-2.42-4.39-2.8-6.91-.16-1.01.34-1.79,1.19-2.29,1.02-.59,2.04-1.22,3.14-1.65,4.15-1.62,7.78-4.13,11.4-6.63,4.6-3.17,9.15-6.42,13.69-9.68,4.6-3.31,8.69-7.19,12.2-11.65,1.03-1.31,1.84-2.77,1.93-4.52.06-1.18-.47-1.87-1.54-2.36-1.67-.77-3.31-.33-4.9.03-2.62.58-5.17,1.41-7.77,2.08-2.69.7-5.38,1.5-8.11,1.94-1.31.21-2.74-.27-4.1-.53-3.16-.62-5.05-2.58-5.88-5.67-.58-2.16-.71-4.31-.33-6.52.3-1.74.27-3.54.67-5.25,1.37-5.86,4.17-11.04,7.98-15.67,2.43-2.96,5.23-5.59,8.37-7.76,4.15-2.87,8.88-4.05,13.9-3.64,1.76.14,3.23,1.31,4.21,2.73,1.53,2.22,2.67,4.64,2.42,7.51-.13,1.44.06,2.91-.04,4.36-.24,3.62-1.72,4.2-4.74,2.78-1.14-.54-2.13-1.43-3.15-2.21-1.01-.77-1.29-1.8-.86-3.01.39-1.09.51-2.2.2-3.32-.29-1.06-.57-1.24-1.61-.8-.83.35-1.64.81-2.33,1.38-3.43,2.87-6.45,6.11-9.26,9.61-3.11,3.87-4.95,8.26-6.09,13-.27,1.12-.58,2.29-.18,3.49.22.66.57,1.11,1.19,1.42,1.31.66,2.69.79,4.09.5,3.26-.67,6.49-1.42,9.75-2.1,2.73-.57,5.46-1.13,8.27-1.01,1.56.06,3.08.28,4.52.98,1.6.78,2.4,2.07,2.61,3.78.03.26.07.52.14,1.07ZM72.78,240.91c.41-.52.69-.89,1.03-1.31-1-1.13-.41-2.07.29-3.01.36-.49.72-.98,1.08-1.47-.08-.11-.15-.21-.23-.32-.29.11-.73.14-.84.34-.6,1.06-1.23,2.13-1.63,3.28-.25.71-.29,1.57.31,2.49ZM78.97,287.2s-.09-.09-.14-.14c-1.4,1.09-2.8,2.19-4.25,3.33.33.41.54.68.82,1.04,1.25-1.48,2.41-2.85,3.57-4.22ZM114.18,258.78c-.04.25-.11.51-.12.76,0,.25.04.51.07.77,1.73-.28,1.8-.36,2.1-1.91-.66.12-1.33.25-2.05.38ZM73.85,242.82c.65,0,1.13.14,1.3-.03.63-.65.85-1.48.62-2.5-.59.77-1.17,1.54-1.92,2.53ZM115.61,263.71c-.95.81-1.51,1.79-1.59,3.28,1.31-.92,1.35-2.15,1.59-3.28ZM122.71,239.29c.66-.19,1.33-.39,2.17-.64-1.18-.86-1.65-.02-2.17.64ZM88.02,282.14c-.59.75-1.01,1.28-1.43,1.81.86-.18,1.57-.49,1.43-1.81ZM89.2,221.42q-1.45-.12-2.27.87c.89-.34,1.58-.61,2.27-.87ZM118.46,240.75c.8-.08,1.34-.21,1.04-1.21-.59.15-1.12.24-1.04,1.21ZM124.8,272.64c.06.1.11.2.17.3.69-.3,1.37-.6,2.06-.89l-.17-.38c-.69.32-1.37.65-2.06.97ZM119.63,275.15q-1.33.21-1.71,1.13c.63-.42,1.07-.7,1.71-1.13ZM67.52,294.74c.05.08.1.16.14.23.29-.16.6-.31.87-.5.08-.05.06-.24.13-.58-.5.37-.82.61-1.14.85ZM121.57,272.64c-.02-.11-.03-.21-.05-.32-.28.1-.57.2-.85.3.03.09.06.18.09.27l.8-.26ZM70.24,294.14l.35.11c.08-.36.17-.73.25-1.09-.12-.02-.24-.05-.36-.07-.08.35-.16.7-.24,1.06Z"/>
        <path class="cls-2" d="M113.29,142.56c-.14.39-.27.77-.41,1.16-1.93,5.41-3.86,10.82-5.82,16.22-.44,1.21-.95,2.4-1.54,3.54-.25.49-.72,1.02-1.22,1.19-2.32.8-4.75.89-7.16.63-1.54-.17-2.26-1.07-2.56-2.61-.7-3.58-1.05-7.19-1.37-10.82-.44-5.09-.51-10.16-.47-15.25.03-3.87.16-7.73.27-11.6.01-.53.15-1.06.24-1.59.29-1.85.55-3.7.88-5.53.27-1.5.81-1.83,2.25-1.46,2.44.64,4.12,2.3,5.38,4.35.36.59.19,1.57.13,2.36-.12,1.76-.41,3.5-.48,5.26-.14,3.27-.29,6.55-.24,9.82.04,2.89.33,5.77.53,8.66.02.23.2.45.41.88.21-.55.36-.88.47-1.22,1.41-4.64,3.42-9.04,5.46-13.43.77-1.66,1.61-3.29,2.33-4.96.42-.97,1.09-1.58,2.02-1.96.89-.37,1.79-.73,2.7-1.08,1.57-.6,2.5-.32,3.34,1.16.44.78.73,1.67,1,2.53,1.23,3.89,2.43,7.79,3.65,11.68.09.29.28.55.57,1.09.32-.85.61-1.44.78-2.07,2.53-9.76,5.34-19.46,7.18-29.39.86-4.68,1.48-9.41,2.16-14.13.14-.99.07-2.01.14-3.01.13-1.92.32-3.84.43-5.77.05-.85-.05-1.71-.07-2.56-.02-.88-.48-1.91.36-2.57.93-.73,1.91-.3,2.87.17,1.82.88,3.57,1.86,4.52,3.72.43.83.68,1.8.79,2.73.13,1.22.06,2.47.02,3.71-.05,1.6-.11,3.2-.25,4.79-.24,2.72-.54,5.43-.84,8.14-.33,2.98-.65,5.96-1.07,8.93-.2,1.42-.65,2.8-1.05,4.46.64-.2,1.08-.3,1.49-.47,1.15-.46,2.27-.99,3.42-1.42.84-.31,1.29-.84,1.46-1.73.49-2.69,1.01-5.37,1.6-8.04.34-1.57.81-3.11,1.26-4.66.51-1.74,1.81-2.77,3.36-3.49,5.07-2.37,10.27-4.42,15.62-6.06,1.95-.6,3.88-1.23,5.85-1.79,1.35-.38,1.66-.12,1.66,1.24,0,1.99-1.11,3.54-2.11,5.14-.68,1.09-1.8,1.43-2.92,1.81-3.81,1.29-7.63,2.59-11.43,3.93-.85.3-1.64.8-2.61,1.28-.52,2.71-1.05,5.48-1.62,8.46.49-.09.89-.11,1.25-.23,2.94-1.02,5.87-2.09,8.82-3.09.75-.25,1.56-.37,2.35-.46.64-.08,1.06.29,1.02.94-.05.69-.1,1.41-.36,2.03-.46,1.09-1.07,2.11-1.63,3.15-.5.95-1.27,1.51-2.31,1.85-2.91.94-5.78,2.02-8.7,2.95-1.16.37-1.73.84-1.82,2.19-.19,2.88-.68,5.74-.99,8.61-.1.89-.02,1.81-.02,2.96.86-.32,1.5-.56,2.14-.8,8.82-3.43,17.72-6.6,26.89-9,.98-.26,1.99-.46,3-.58,1.71-.21,2.32.48,1.85,2.15-.32,1.13-.72,2.25-1.24,3.31-.6,1.22-1.7,1.89-2.99,2.28-1.65.5-3.3.98-4.91,1.58-8.61,3.22-17.1,6.75-25.39,10.73-1.79.86-3.63,1.63-5.46,2.41-.44.19-.92.33-1.39.37-1.55.13-2.76-.89-2.76-2.46,0-2.52-.09-5.03.41-7.54.75-3.78,1.25-7.61,1.85-11.42.02-.14-.05-.3-.12-.62-2.2.84-4.34,1.65-6.61,2.52-.97,3.79-1.92,7.64-2.96,11.47-1.46,5.38-3,10.75-4.51,16.12-.01.05-.03.1-.05.15-1.33,3.14-1.45,3.29-5.05,2.94-2.72-.26-4.36-1.56-5.51-3.95-1.51-3.15-3.24-6.19-4.88-9.27-.29-.56-.59-1.11-.89-1.67l-.41.02ZM143.61,122.47c-.79.02-1.49.26-2.28.9,1.2.32,1.7-.39,2.26-.93.77.05,1.4-.27,2.06-.52-.05-.12-.09-.24-.14-.36-.64.3-1.27.6-1.91.9ZM160.33,133.14c-.99.34-1.98.69-2.97,1.01-.97.31-2.21-.21-3.07.93,2.43.43,4.38-.27,6.04-1.93ZM150.29,130.43c-.84.91-1.09,1.73-1.18,2.66.62.27,1.12.38,1.17-.46.04-.63,0-1.26,0-2.21ZM117.35,133.79l-.31.02c-.26.64-.52,1.27-.78,1.91.1.07.19.13.29.2.39-.35.77-.71,1.19-1.09-.14-.37-.26-.7-.39-1.03ZM131.7,134.78v2.27c.12.03.24.05.35.08.25-.59.5-1.19.78-1.85-.4-.18-.68-.3-1.14-.5ZM97.76,130.8c-.42.84-.71,1.4-1.12,2.2,1.16-.41,1.79-.79,1.12-2.2ZM133.25,119.03c-.81,1.84-.8,1.89.18,2.02-.06-.69-.12-1.35-.18-2.02ZM176.41,131.13c-.05-.14-.1-.28-.15-.41-.81-.29-1.16.36-1.5,1.06.55-.22,1.1-.43,1.65-.65ZM153.1,107.75c-.41.69-.68,1.15-1.13,1.91.96-.46,1.46-.81,1.13-1.91ZM112.35,135.82c-.11-.07-.21-.13-.32-.2-.33.65-.81,1.23-.67,2.09.33-.63.66-1.26.99-1.89ZM97.02,146.54c1.08.14,1.17-.27.98-.89-.02-.07-.16-.1-.33-.21-.17.29-.34.58-.65,1.1ZM94.83,150.32c.12,0,.24,0,.36,0,0-.33.02-.66-.01-.99,0-.07-.2-.12-.46-.26.05.53.08.9.12,1.27ZM106.23,148.72c.14,0,.27.04.28,0,.19-.4.37-.81.55-1.22l-.26-.1c-.18.42-.37.85-.57,1.31ZM147.39,140.51c-.09.11-.19.23-.28.34.16.19.31.4.5.55.09.07.27.03.83.08-.53-.49-.79-.73-1.05-.97ZM98.46,154.44q.84-.32.4-.85c-.14.3-.27.58-.4.85ZM131.66,127.21c.09,0,.19.01.28.02-.03-.47-.06-.93-.09-1.48-.07.55-.13,1.01-.19,1.47ZM134.88,112.69c.05-.42.1-.84.18-1.59-.7.67-.55,1.14-.18,1.59ZM167.81,130.75c.1.15.21.3.31.46.3-.23.6-.47.9-.7-.06-.09-.13-.19-.19-.28-.34.18-.68.35-1.02.53ZM156.27,98.92c-.09-.09-.18-.19-.27-.28-.28.25-.55.51-.83.76.07.08.15.16.22.25.29-.24.58-.49.87-.73ZM100.81,160.85c-.37-.7-.64-.68-1.01,0h1.01ZM169.23,133.45c.06.12.11.24.17.37.25-.14.49-.29.74-.43-.05-.1-.11-.19-.16-.29-.25.12-.5.24-.75.36ZM145.25,140.44c.08-.04.16-.07.23-.11-.11-.21-.22-.42-.33-.63-.06.03-.12.06-.18.09.09.22.19.43.28.65Z"/>
        <path class="cls-2" d="M259.24,253.92c.68-2.65,1.46-5.27,2.03-7.94,1.29-6.04,2.56-12.08,3.69-18.15.64-3.47.97-7.01,1.48-10.51.08-.56.33-1.12.63-1.61.42-.68,1.14-.91,1.83-.52,2.36,1.33,4.63,2.8,5.77,5.41.28.65.4,1.48.29,2.18-.69,4.29-1.48,8.56-2.23,12.84-1.46,8.35-2.9,16.7-4.38,25.05-.51,2.85-1.15,5.68-1.71,8.53-.41,2.05-.78,4.11-1.18,6.16-.05.26-.13.52-.22.77-.76,2.07-1.24,2.4-3.42,2.42-1.86.02-3.65-.31-5.28-1.22-.51-.29-1.07-.82-1.24-1.35-.7-2.25-1.31-4.53-1.85-6.83-1.63-6.9-3.18-13.81-4.85-20.7-.6-2.49-1.47-4.92-2.33-7.74-.22.59-.37.84-.4,1.09-.36,3.63-.4,7.28-1.3,10.85-.36,1.44-.37,2.97-.55,4.46-.18,1.51-.86,2.53-2.42,3.05-5.77,1.9-11.61,3.64-17.23,5.92-8.27,3.35-16.38,7.1-24.56,10.68-1.53.67-3.04,1.37-4.6,1.95-2.5.93-4.27-.34-4.32-3-.05-3.01.11-5.99.73-8.97.71-3.41,1.13-6.87,1.65-10.31.05-.36,0-.73,0-1.31-1.07.36-1.96.67-2.86.97-.61.2-1.22.45-1.84.57-1.18.23-2.12-.53-1.92-1.71.28-1.68.74-3.35,1.25-4.98.41-1.31,1.48-2.08,2.72-2.58.95-.38,1.91-.73,2.86-1.08,1.01-.37,1.72-.87,1.93-2.1.49-2.91,1.1-5.79,1.74-8.67.39-1.73.89-3.43,1.41-5.12.58-1.88,2.01-3,3.72-3.8,5.71-2.66,11.57-4.95,17.6-6.8,2.05-.63,4.09-1.31,6.16-1.87,1.44-.39,1.83,0,1.84,1.5,0,1.65-.93,2.95-1.59,4.35-.83,1.76-2.27,2.69-4.12,3.28-4.2,1.33-8.36,2.79-12.51,4.27-2.47.88-3.31,2.03-3.72,4.64-.28,1.8-.57,3.6-.84,5.4-.03.2,0,.4,0,.74.45-.08.81-.1,1.14-.22,3.3-1.15,6.58-2.35,9.89-3.47.85-.29,1.77-.42,2.67-.47.72-.04,1.07.47.96,1.18-.33,2.05-1.05,3.98-2.38,5.57-.58.7-1.52,1.21-2.39,1.54-2.57.95-5.18,1.78-7.79,2.64-3.38,1.11-3.45,1.09-3.94,4.55-.41,2.92-.66,5.86-.93,8.79-.08.89-.01,1.8-.01,2.95.86-.3,1.46-.5,2.05-.71,6.58-2.36,13.14-4.78,19.75-7.05,3.45-1.18,7-2.09,10.51-3.11,1.18-.34,1.47-.65,1.61-1.85.43-3.62.91-7.23,1.3-10.85.25-2.34.33-4.71.57-7.05.24-2.34.61-4.67.9-7.01.17-1.38.28-2.77.43-4.15.16-1.48,1.32-2.48,2.76-2.2.99.2,2.02.51,2.86,1.04,1.44.92,2.76,2.03,4.07,3.13.34.29.53.8.7,1.24,1.11,2.97,2.29,5.92,3.27,8.93,1.89,5.83,3.65,11.7,5.47,17.55.09.29.22.56.33.85.12-.01.24-.02.36-.04ZM268.51,238.7c.44-1.24.96-2.17.77-3.36-1.32.98-1.54,1.82-.77,3.36ZM249.26,242.08c.4,1.08.7,1.89,1.06,2.86.82-1.79.73-2.06-1.06-2.86ZM240.52,243.92c-.6,1.46-.62,1.81-.2,3.54.34-1.23.98-2.18.2-3.54ZM257.44,263.2c1.01-.87.87-1.38-.39-1.87.12.6.24,1.13.39,1.87ZM261.32,274.04c1.36-.59,1.44-.77,1.13-2.42-.43.92-.72,1.55-1.13,2.42ZM260.51,260.64c-.55.36-1.41.7-.76,1.83.3-.73.53-1.28.76-1.83ZM213.63,263.98q-1.8.42-1.88,1.2c.66-.43,1.27-.81,1.88-1.2ZM200.83,257.91c.14.04.28.09.42.13.08-.67.15-1.34.23-2.01-.1-.02-.19-.03-.29-.05-.12.64-.24,1.28-.36,1.92ZM242.81,228.46c-.09-.08-.18-.15-.26-.23-.23.4-.46.79-.69,1.19.09.05.17.1.26.15.23-.37.46-.74.69-1.11ZM199.99,236.17c.1.02.21.05.31.07.1-.34.19-.68.29-1.02-.12-.03-.25-.06-.37-.08-.08.34-.16.69-.23,1.03ZM201.14,272.28q-.74-.44-1.49.59c.6-.24.99-.4,1.49-.59ZM233.69,258.87q.93.08,1.36-.42c-.46.14-.8.25-1.36.42ZM204.16,271.04c.05.1.11.2.16.3.3-.14.61-.29.91-.43-.06-.12-.12-.23-.18-.35-.3.16-.59.32-.89.48ZM248.6,239.8c.09-.06.18-.12.27-.18-.17-.25-.33-.49-.5-.74-.09.06-.17.11-.26.17l.49.75ZM198.35,261.19l.32.25c.14-.23.27-.46.41-.69-.08-.05-.16-.11-.23-.16-.17.2-.33.4-.5.6ZM208.06,267.93c.08.1.17.19.25.29.2-.18.4-.36.6-.54-.06-.07-.13-.15-.19-.22-.22.16-.44.31-.66.47ZM194.77,266.22c.08,0,.15,0,.23,0v-.78c-.08,0-.15,0-.23,0v.78Z"/>
        <path class="cls-2" d="M233.78,84.45c-1.25.5-2.25.86-3.22,1.29-2.75,1.22-5.49,2.47-8.25,3.69-.43.19-.91.33-1.38.38-1.82.17-2.88-.87-2.68-2.67.26-2.26.96-4.4,1.94-6.44.24-.5.69-1.01,1.17-1.26,1.8-.95,3.6-1.92,5.49-2.67,5.04-2.01,10.24-3.6,15.48-4.99,4.15-1.09,8.37-1.9,12.54-2.87,1.04-.24,1.94,0,2.74.59,2.85,2.12,5.33,4.65,7.76,7.24,1.9,2.03,4.04,3.83,6.04,5.71.96-1.61,8.87-26.14,9.03-28.19.83-.59,1.77-1,2.82-.87,1.38.17,2.78.33,4.09.76,2.15.7,3.29,3.02,2.89,5.27-.85,4.73-2.51,9.21-4.08,13.72-.93,2.69-1.76,5.43-2.84,8.05-2.97,7.15-5.99,14.28-9.1,21.36-3.17,7.24-6.41,14.45-9.74,21.62-1.93,4.14-4.15,8.14-6.17,12.24-.96,1.94-2.28,2.29-4.42,1.98-1.42-.21-2.81-.68-4.19-1.1-.61-.19-1.2-.49-1.73-.85-1.07-.71-1.28-1.46-.75-2.63.56-1.22,1.2-2.41,1.79-3.62,2.92-5.93,5.88-11.85,8.74-17.81,2.18-4.56,4.25-9.17,6.34-13.77.69-1.52,1.23-3.1,1.91-4.62.46-1.04.25-1.89-.53-2.63-1.17-1.11-2.37-2.18-3.54-3.29-1.99-1.88-3.97-3.78-5.96-5.66-1.25-1.18-2.54-2.31-3.78-3.5-.45-.43-.87-.51-1.45-.34-2.62.79-5.25,1.56-7.87,2.33-.79.23-1.06.79-1.11,1.58-.41,6.15-1.15,12.26-1.91,18.37-.41,3.35-.58,6.72-.93,10.08-.28,2.66-.69,5.31-1.01,7.97-.33,2.76-.6,5.54-.94,8.3-.07.57-.21,1.18-.49,1.67-.17.32-.64.62-1,.66-2.85.34-5.45-.49-7.79-2.03-.5-.33-.79-1.3-.79-1.97-.01-1.66.09-3.33.34-4.97.78-5.13,1.58-10.27,2.52-15.38,1.18-6.38,2.5-12.72,3.76-19.09.08-.42.14-.84.27-1.63ZM266.28,111.96c.11-.17.24-.32.32-.5,2.29-4.75,4.58-9.49,6.86-14.24.12-.24.32-.49.31-.73,0-.27-.2-.54-.46-1.16-2.83,5.64-5.12,11.05-7.04,16.63ZM234.05,98.22c-.81,3.65-1.54,7.16-1.41,10.82.48-.71.84-1.46,1.14-2.23.08-.21.04-.56-.09-.74-.61-.86-.42-1.73-.1-2.61.54-1.5,1.11-2.99,1.69-4.57-.4-.21-.74-.4-1.23-.66ZM273.28,86.51c1.57-2.84,3.25-5.61,4.33-8.69.05-.15.12-.32.1-.47-.06-.32-.17-.63-.26-.94-1.71,3.31-3.21,6.59-4.16,10.1ZM260.79,123.05c1.38-.58,2.14-2.09,1.93-3.84-.75,1.49-1.34,2.67-1.93,3.84ZM235.27,92.61c.49-1.08,1.34-2,1.38-3.28q-.98.13-1.38,3.28ZM274.57,93.89c.12.04.24.08.36.12.24-.61.47-1.22.71-1.83-.12-.04-.23-.08-.35-.12-.24.61-.48,1.22-.72,1.83ZM236.72,94.64c.1.05.19.09.29.14.12-.15.31-.29.35-.47.05-.2-.04-.42-.07-.64-.07,0-.14,0-.22,0-.12.32-.24.64-.36.97Z"/>
        <path class="cls-2" d="M167.76,257.44c.34-1.51.6-3.04,1.04-4.51,3.04-10.33,6.53-20.49,12.11-29.78,1.63-2.71,3.43-5.33,5.22-7.94,1.32-1.93,3.14-2.36,5.12-.87.77.58,1.68.96,2.42,1.57.7.57,1.27,1.29,1.86,1.98.69.81.6,1.69.08,2.55-.53.87-1.07,1.74-1.66,2.58-2.58,3.62-4.22,7.73-6.02,11.75-3.75,8.37-5.96,17.23-8.12,26.11-.75,3.07-1.53,6.14-2.14,9.25-.68,3.46-1.17,6.96-1.76,10.45-.2,1.16-.41,2.32-.66,3.47-.28,1.26-.96,1.84-2.31,1.78-2.21-.11-4.35-.65-6.29-1.7-.65-.35-1.14-1.12-1.54-1.79-2.52-4.22-4.33-8.75-5.79-13.43-1.53-4.86-3.09-9.71-4.51-14.61-2.46-8.51-4.54-17.11-6.23-25.81-.53-2.73-1.12-5.46-1-8.28.07-1.73,1.34-2.97,3.03-2.7,1.91.31,3.74.82,5.33,2.08,1.26.99,1.95,2.2,2.25,3.74.66,3.42,1.39,6.82,2.12,10.23,1.33,6.19,2.77,12.35,4.83,18.35.66,1.91,1.53,3.75,2.3,5.61.11-.01.22-.02.33-.04ZM185.77,229.94c1.1-2.66,2.13-5.15,3.28-7.93-1.77,1.31-5.78,6.64-6.14,8.13.95-.61,1.81-1.37,2.86-.2ZM184.57,232.85c-.09-.07-.17-.13-.26-.2-1.43,1.31-2.61,2.83-3.7,4.59,2.27-.29,3.42-1.45,3.72-3.48.05-.31.16-.61.24-.91ZM158.2,250.22c.08-.01.15-.02.23-.04-.09-1.16-.39-2.35-.23-3.47.18-1.25-.23-2.13-.87-3.03-.61.18-.8.43-.64.98.53,1.84,1.01,3.7,1.52,5.55ZM172.18,276.46c-1.74,1.01-2.47,3.08-4.73,3.2,1.61,1.17,1.72,1.16,2.68-.18.15-.21.31-.55.5-.57,1.52-.18,1.3-1.37,1.55-2.45ZM166.11,269.09c.76-1.3.58-1.87-.82-2.76.28.95.53,1.78.82,2.76ZM170.76,262.75q-.74,1.71-.1,2.62c.04-.86.84-1.55.1-2.62ZM176.42,258.6c.14.06.29.13.43.19.23-.73.47-1.46.7-2.19-.14-.05-.28-.09-.42-.14-.24.71-.47,1.42-.71,2.14ZM178.52,240.2c-.11.03-.23.05-.34.08-.11.4-.23.79-.34,1.19.09.08.18.16.27.24.33-.16.65-.32.98-.48-.19-.34-.37-.68-.56-1.02ZM173.64,250.62q.89-.69.56-1.69c-.23.69-.39,1.19-.56,1.69ZM165.84,264.18c-.08.06-.15.11-.23.17.22.6.44,1.21.66,1.81.08-.03.17-.06.25-.09-.23-.63-.45-1.26-.68-1.89ZM152.84,222.47l.2-.06-.23-.83c-.09.03-.17.05-.26.08.09.27.19.54.28.81ZM177.97,236.05c-.11-.07-.22-.14-.32-.21-.13.33-.27.66-.4.99.09.04.18.08.26.12.15-.3.31-.6.46-.9ZM167.65,274.95c.08,0,.16,0,.24,0v-.69c-.08,0-.16,0-.24,0v.69Z"/>
        <path class="cls-2" d="M186.79,100.12c-.14,1.15-.37,2.3-.41,3.45-.09,2.8-.4,5.55-1.01,8.29-.36,1.61-.45,3.28-.63,4.93-.22,1.95-1.48,2.95-3.41,2.65-.74-.12-1.48-.28-2.21-.44-1.61-.37-2.42-1.24-2.47-2.9-.04-1.23.04-2.47.17-3.69.35-3.24.78-6.48,1.13-9.72.4-3.67.72-7.35,1.11-11.02.33-3.14.7-6.27,1.05-9.41.16-1.41,1.56-2.46,3-2.09,1.08.28,2.16.7,3.14,1.25,1.02.58,1.91,1.38,2.85,2.09,1.13.85,1.6,2.12,2.07,3.38,3.18,8.45,6.04,17,8.34,25.73.08.3.24.57.47,1.08.23-.66.42-1.08.54-1.52,2-7.57,3.79-15.19,5.07-22.92.64-3.85,1.14-7.73,1.64-11.61.42-3.29.73-6.59,1.12-9.89.07-.58.18-1.19.44-1.7.51-1,1.75-1.2,2.77-.7,1.64.81,3.11,1.81,4.45,3.07,1.42,1.34,1.78,2.91,1.49,4.69-.93,5.76-1.87,11.52-2.87,17.27-.98,5.6-2.07,11.17-3.06,16.76-.73,4.11-1.36,8.25-2.08,12.36-.53,3.01-1.14,6-1.72,9-.39,2.05-.78,4.1-1.18,6.15-.05.26-.1.53-.19.78-.78,2.44-1.42,2.94-3.96,2.78-1.27-.08-2.55-.34-3.79-.65-1.66-.41-2.63-1.52-3-3.21-.65-2.93-1.31-5.86-2.02-8.78-1.81-7.45-3.15-15.01-5.56-22.32-.35-1.06-.62-2.14-.93-3.21-.12.01-.24.03-.37.04ZM208.99,91.92h-1.08c-.27,2.01-.53,3.96-.79,5.9.1.02.2.03.3.05.51-1.92,1.01-3.84,1.56-5.95ZM194.79,103.68c-1-1.74-1.86-3.23-2.71-4.71-.08.03-.17.07-.25.1v2.08c.97.04,1.42.58,1.62,1.47.1.44.16,1.09,1.34,1.07ZM206.73,100.54c-.25,1.63-.45,2.88-.64,4.12.08.03.17.06.25.09.56-.93,1.12-1.86,1.69-2.79-.42-.45-.73-.79-1.3-1.41ZM197.22,110.55c-.1.02-.2.04-.3.07-.12.87-.24,1.74-.37,2.65.57.12.96.2,1.55.32-.34-1.15-.61-2.09-.88-3.03ZM193.27,107.31q.52-1.23-.59-1.62c.21.59.4,1.11.59,1.62ZM201.29,131.2c.5.24.98.77,1.62.17-.56-.67-1.1-.21-1.62-.17ZM195.72,106.45c-.18.53-.34,1.06.12,1.65.75-.66.16-1.15-.12-1.65ZM189.75,99.43c.28-.47.59-1.02-.38-1.23.16.51.27.87.38,1.23Z"/>
        <path class="cls-2" d="M179.13,155.7c3.2.87,5.56,2.75,7.44,5.12,1.76,2.22,3.17,4.72,4.15,7.43,1.09,3,1.78,6.09,1.96,9.26.1,1.69-.27,3.41-.44,5.11-.47,4.67-2.13,8.99-4.26,13.1-2.57,4.97-6.27,9.04-11.17,11.78-3.89,2.17-8.14,3.31-12.69,2.82-1.06-.12-2.13-.17-3.19-.31-2.37-.33-4.34-1.52-6.05-3.12-3.53-3.29-6.11-7.21-7.33-11.92-.85-3.28-1.3-6.56-.84-10,.44-3.2,1.07-6.34,1.99-9.42,1.82-6.12,5.13-11.32,9.94-15.53,1.61-1.41,3.31-2.72,4.97-4.07,2.52-2.06,5.55-2.95,8.64-3.68.78-.19,1.55-.47,2.35-.55.95-.1,1.93-.17,2.86-.02,1.85.29,2.25.93,1.95,2.77-.06.36-.17.71-.3,1.24ZM172.41,160.04c-1.54.6-2.61,1.56-3.6,2.62-3.56,3.78-5.93,8.32-7.82,13.06-2.34,5.86-3.28,11.98-2.29,18.3.41,2.64,1.19,5.12,2.67,7.36,1.41,2.12,4.33,3.24,6.63,2.23,1.65-.72,3.22-1.7,4.68-2.77,2.63-1.95,4.5-4.61,6.25-7.33,1.96-3.06,3.38-6.37,3.89-9.99.66-4.68.38-9.35-.89-13.88-1.06-3.8-3.42-6.54-7.58-7.28-1.77-.32-1.77-.35-1.93-2.31ZM162.04,168.04c-1.48.88-3.71,4.98-3.89,6.84,1.4-2.46,2.64-4.65,3.89-6.84ZM152.64,176.08c.12.07.23.14.35.21,1.02-1.61,2.05-3.22,3.04-4.84.06-.1-.13-.36-.28-.74-1.47,1.7-2.42,3.46-3.1,5.37ZM184.57,185.7c-.59,2.57-1.31,5.09-2.41,7.48-.1.23-.09.52-.1.78,0,.07.12.15.19.23.8-.9,2.5-6.84,2.32-8.49ZM188.7,175.1c.15-.03.31-.07.46-.1-.21-1.49-.65-2.93-1.37-4.3-.12.03-.23.06-.35.09.42,1.44.84,2.88,1.25,4.31ZM154.45,187.08c.14-1.08.23-1.81.34-2.71q-1.1,1.14-.34,2.71ZM185.3,166.05c-.81-.33-1.25-.52-1.69-.7-.06.08-.12.17-.18.25.23.36.46.71.7,1.09.35-.19.57-.32,1.17-.64ZM182.47,196.88q-.95.25-.59,1.3c.24-.52.41-.91.59-1.3ZM153.51,189.84q.8-.77.47-1.93c-.19.77-.33,1.35-.47,1.93ZM185.02,168.19c-.09.03-.19.05-.28.08.16.56.33,1.12.49,1.68.07-.02.13-.05.2-.07-.14-.56-.27-1.13-.41-1.69ZM155.27,195.09c-.3.66-.5,1.29.19,1.76-.06-.59-.13-1.17-.19-1.76ZM184.36,163.15c-.07-.71-.1-1.08-.15-1.56-.98.5-.6.88.15,1.56ZM151.07,181.91c-.13.02-.26.04-.39.06.03.3.06.6.1.91.1,0,.2,0,.3-.01v-.95ZM188.72,169.59c.13-.2.27-.31.26-.43,0-.11-.15-.21-.24-.32-.08.11-.22.21-.24.33-.01.11.11.23.21.42Z"/>
        <path class="cls-2" d="M140.58,287.78c.38,0,.76-.05,1.13,0,.96.14,1.51.74,1.31,1.67-.31,1.41-.64,2.85-1.23,4.15-.32.69-1.13,1.34-1.87,1.64-2.54,1.02-5.11,1.99-7.73,2.77-8.24,2.48-16.46,4.99-24.2,8.84-6.06,3.02-12.11,6.06-18.17,9.08-3.17,1.58-6.33,3.19-9.52,4.74-1.82.88-4.09-.27-4.22-2.29-.21-3.16.33-6.25,1.98-8.99.54-.91,1.56-1.66,2.52-2.17,3.17-1.69,6.37-3.36,9.65-4.82,4.02-1.79,8.1-3.46,12.22-5.03,7.99-3.05,16.15-5.5,24.5-7.38,4.09-.92,8.18-1.7,12.34-2.19.42-.05.86,0,1.29,0,0,0,0,0,0-.01ZM105.1,302c.06.1.12.2.18.29,1.76-.5,3.72-.56,5.14-2.64-.68-.06-1.14-.26-1.41-.1-1.33.77-2.61,1.63-3.91,2.45ZM95.48,305.74c.99-.8,1.99-1.59,2.98-2.39-.1-.12-.2-.24-.3-.36-.75,1.09-2.83.57-2.69,2.75ZM83.8,314c.11.09.22.18.33.27.65-.35,1.3-.7,2.07-1.12-.33-.48-.61-.88-.99-1.44-.55.89-.98,1.59-1.41,2.29ZM103.76,303.15c-.05-.22-.05-.36-.09-.37-.89-.29-1.58-.09-1.89,1.04.66-.22,1.33-.45,1.98-.67Z"/>
        <path class="cls-2" d="M109.6,95.98c.16,0,.32,0,.48,0,2.13-.11,2.65.6,2.23,2.7-.53,2.7-2.07,4.35-4.7,5.14-4.58,1.36-9.12,2.83-13.68,4.23-7.36,2.26-14.48,5.12-21.35,8.62-6.08,3.1-12.17,6.18-18.27,9.25-.86.43-1.75.83-2.67,1.12-1.96.63-3.51-.39-3.47-2.46.03-1.69.38-3.39.68-5.07.47-2.64,2.2-4.23,4.47-5.53,6.05-3.46,12.62-5.71,19.05-8.28,10.09-4.03,20.54-6.85,31.19-8.98,1.99-.4,4.02-.58,6.03-.86,0,.04.01.07.02.11ZM57.57,116.76c.82-.73,1.6-1.51,1.98-2.68-1.07.11-1.24.34-1.98,2.68ZM86.91,105.18c2.09-.21,3.38-.73,4.13-1.6-1.38.53-2.75,1.07-4.13,1.6ZM65.02,112.68c.09.08.18.16.27.24.35-.31.88-.44.58-1.33-.28.36-.57.72-.85,1.08ZM74.86,106.84c-.05-.08-.1-.16-.15-.24-.31.17-.62.34-.93.51.06.1.12.2.18.31.3-.19.6-.38.9-.58Z"/>
        <path class="cls-2" d="M124.21,189.16c.84-.23,1.45-.39,2.05-.56,3.51-.99,7-2.04,10.53-2.97,1.55-.41,3.15-.67,4.74-.84,1.86-.2,2.57.53,2.18,2.36-.49,2.3-1.31,4.33-4.01,5.13-5.23,1.54-10.07,4.05-14.95,6.42-1.22.59-1.68,1.38-1.74,2.76-.1,2.24-.53,4.47-.77,6.71-.24,2.29-.42,4.59-.62,6.89-.33,3.79-.64,7.59-1.01,11.38-.12,1.25-1.29,2.44-2.75,2.54-1.53.11-3.09-.06-4.63-.22-1.29-.13-1.87-1.13-1.87-2.26-.01-2.68.13-5.36.21-8.04.01-.48,0-.97.04-1.45.24-3.37.47-6.73.74-10.1.17-2.08.35-4.16.59-6.23.7-6.01,1.56-12,2.96-17.89.25-1.03.71-2.02,1.12-3.01.39-.93,1.08-1.32,2.15-1.34,1.94-.03,3.41,1,4.72,2.13.88.76.97,2.07.81,3.32-.22,1.69-.31,3.39-.48,5.29ZM115.92,208.2c.09.04.17.08.26.12.43-1.4.86-2.79,1.28-4.17-.64-.53-1.12-.45-1.22.26-.17,1.25-.22,2.52-.32,3.79ZM123.21,195.87c.05.11.11.22.16.32.54-.29,1.09-.59,1.63-.88-1-.6-1.31.15-1.79.55ZM114.94,218.65c-.1,0-.21.02-.31.03.02.41.05.83.07,1.24.12,0,.23-.02.35-.03-.04-.41-.07-.83-.11-1.24ZM117.43,197.58q.58-.7.16-1.24c-.05.4-.1.73-.16,1.24Z"/>
        <path class="cls-2" d="M76.78,172.19c-.95-.11-1.94-.11-2.85-.37-1.39-.39-2.14-1.32-2.46-2.85-.4-1.91.04-3.75.1-5.61.09-2.94.38-5.88.68-8.81.43-4.31.87-8.62,1.44-12.92.35-2.65.9-5.27,1.41-7.9,1.03-5.26,2.09-10.51,3.14-15.77.31-1.56.75-1.86,2.32-1.73,1.47.12,2.7.87,3.71,1.77.94.83,1.08,2.18.97,3.45-.25,3.04-.47,6.08-.76,9.12-.22,2.29-.53,4.56-.77,6.84-.13,1.22-.2,2.46-.28,3.69-.19,2.78-.37,5.56-.55,8.34-.2,3.26-.32,6.52-.6,9.77-.28,3.25-.71,6.49-1.09,9.74-.05.42-.17.84-.3,1.25-.4,1.24-1.19,1.83-2.49,1.87-.54.02-1.08,0-1.61,0,0,.03,0,.07-.01.1ZM77.09,141.44c.92-3.3,2.27-6.55,1.28-10.07-.88,1.38-1.54,2.75-.86,4.45.28.69.21,1.57.14,2.34-.11,1.1-.36,2.18-.56,3.27ZM80.97,137.09c-.09-.02-.17-.03-.26-.05-.1.71-.21,1.41-.31,2.12h.1c.16-.68.32-1.37.47-2.07Z"/>
        <path class="cls-2" d="M149.06,161.99c-.03,2.98-1.38,4.81-4.4,5.8-2.76.9-5.52,1.79-8.31,2.58-9.45,2.69-18.48,6.37-27.14,11.01-1.09.58-2.18,1.17-3.31,1.67-1.32.58-1.79.32-1.96-1.08-.5-4.3.76-8.05,3.71-11.22.25-.27.58-.49.91-.66,3.44-1.75,6.93-3.37,10.63-4.54,5.83-1.86,11.66-3.68,17.67-4.88,2.82-.56,5.7-.87,8.55-1.28.37-.05.75-.02,1.13-.02,2.03.02,2.54.55,2.52,2.62ZM126.4,168.36c-1.89.29-3.68.89-5.36,1.8,1.85-.41,3.76-.67,5.36-1.8ZM135.39,167.9l-.03-.32c-.23.06-.45.12-.68.17.01.05.02.1.03.15h.68Z"/>
        <path class="cls-2" d="M277.86,179.33c-1.52,0-2.26-.52-2.24-1.85.04-2.49.49-4.97,2.18-6.91.65-.75,1.77-1.27,2.77-1.53,5.51-1.38,11.03-2.7,16.57-3.92,1.87-.41,3.82-.5,5.73-.64,1.66-.12,2.28.61,2.03,2.24-.44,2.85-1.87,4.81-4.77,5.64-3.3.94-6.58,1.97-9.85,3.01-3.73,1.19-7.45,2.43-11.18,3.64-.5.16-1.03.26-1.24.31ZM285.07,175.23c2.05-.21,2.5-.41,2.93-1.29-1.25-.08-2.05.69-2.93,1.29ZM294.66,172.27c-1.17-.26-1.46-.14-2.44.91.92-.34,1.68-.62,2.44-.91ZM285.79,171.72c.1.14.19.27.29.41.3-.2.6-.4.9-.6-.08-.13-.16-.25-.24-.38l-.95.57Z"/>
      </g>
    </g>
  </g>
</svg>