<?xml version="1.0" encoding="UTF-8"?>
<svg id="Layer_2" data-name="Layer 2" xmlns="http://www.w3.org/2000/svg" viewBox="0 0 351.27 351.27">
  <defs>
    <style>
      .cls-1 {
        fill: none;
      }

      .cls-2 {
        fill: #161616;
      }
    </style>
  </defs>
  <g id="Layer_1-2" data-name="Layer 1">
    <g>
      <g>
        <g>
          <g>
            <path class="cls-2" d="M224.39,264.14c-.48,0-.97-.1-1.44-.31l-1.2-.54c-1.59-.72-2.41-2.51-1.92-4.18l6.12-20.7-24.82-19.8c-.98-.78-1.46-2.02-1.28-3.26,9.05-59.75-19.13-99.3-27.88-109.91-8.73,10.63-36.91,50.29-27.89,109.91.19,1.24-.3,2.48-1.28,3.26l-24.07,19.21,6.3,21.3c.5,1.68-.32,3.47-1.92,4.19l-1.2.54c-1.6.72-3.48.15-4.41-1.34l-7.29-11.67h-24.81c-8.21,0-15.55-4.26-19.62-11.39-4.07-7.13-4.02-15.61.15-22.68l86.56-146.99c4.1-6.97,11.39-11.13,19.47-11.13h0c8.09,0,15.37,4.16,19.47,11.13l86.56,146.99c4.17,7.07,4.22,15.55.15,22.68-4.08,7.13-11.41,11.39-19.62,11.39h-23.89l-7.3,11.67c-.66,1.05-1.79,1.64-2.97,1.64ZM207.08,214.38l25.09,20.02c1.11.89,1.58,2.36,1.17,3.73l-1.74,5.88c.35-.12.73-.18,1.11-.18h25.83c5.67,0,10.73-2.94,13.54-7.86,2.81-4.92,2.77-10.77-.1-15.66h0l-86.56-146.99c-2.83-4.81-7.86-7.68-13.44-7.68s-10.61,2.87-13.44,7.68l-86.56,146.99c-2.88,4.88-2.91,10.74-.1,15.66,2.81,4.92,7.88,7.86,13.54,7.86h26.75c.38,0,.76.06,1.11.18l-1.92-6.47c-.4-1.37.06-2.84,1.17-3.73l24.35-19.42c-10.08-72.27,30.83-114.92,32.6-116.72,1.32-1.34,3.68-1.34,5,0,1.76,1.8,42.67,44.45,32.6,116.72Z"/>
            <path class="cls-2" d="M171.98,190.45c-10.68,0-19.37-8.69-19.37-19.36s8.69-19.37,19.37-19.37,19.37,8.69,19.37,19.37-8.69,19.36-19.37,19.36ZM171.98,158.72c-6.82,0-12.36,5.55-12.36,12.37s5.55,12.36,12.36,12.36,12.36-5.55,12.36-12.36-5.55-12.37-12.36-12.37Z"/>
          </g>
          <path class="cls-2" d="M169.41,313.32c-.62,0-1.25-.17-1.81-.51-1.49-.9-2.09-2.76-1.41-4.36,4.6-10.87,4.82-23.64.7-34.7-2.9,1.05-5.34,3.63-6,6.62-.32,1.47-1.54,2.57-3.03,2.73-1.49.16-2.92-.64-3.56-2-5.32-11.38-3.9-25.79,3.55-35.87.66-.89,1.7-1.42,2.81-1.42h21.36c1.11,0,2.16.53,2.82,1.42,7.54,10.23,10.17,26.95,6,38.07-4.14,11.05-11.89,20.44-18.73,28.73-.69.83-1.69,1.27-2.7,1.27ZM169.04,266.27c1.38,0,2.63.81,3.2,2.08,3.67,8.26,5.13,17.53,4.37,26.59,3.1-4.43,5.81-9.07,7.68-14.07,3.18-8.49,1.32-21.56-4.1-30.04h-17.68c-3.69,5.8-5.1,13.27-4.02,20.18,2.77-2.72,6.47-4.51,10.36-4.72.06,0,.13,0,.19,0Z"/>
        </g>
        <path class="cls-2" d="M222.93,171.72c3.86,0,3.87-6,0-6s-3.87,6,0,6h0Z"/>
        <path class="cls-2" d="M226.04,205.94c3.86,0,3.87-6,0-6s-3.87,6,0,6h0Z"/>
        <path class="cls-2" d="M256.71,229.06c3.86,0,3.87-6,0-6s-3.87,6,0,6h0Z"/>
        <path class="cls-2" d="M118.93,189.95c3.86,0,3.87-6,0-6s-3.87,6,0,6h0Z"/>
        <path class="cls-2" d="M97.15,217.61c3.86,0,3.87-6,0-6s-3.87,6,0,6h0Z"/>
      </g>
      
    </g>
  </g>
</svg>