<?xml version="1.0" encoding="UTF-8"?>
<svg id="Layer_2" data-name="Layer 2" xmlns="http://www.w3.org/2000/svg" viewBox="0 0 351.27 351.27">
  <defs>
    <style>
      .cls-1 {
        fill: none;
      }

      .cls-2 {
        fill: #161616;
      }
    </style>
  </defs>
  <g id="Layer_1-2" data-name="Layer 1">
    <g>
      <path class="cls-2" d="M231.94,221.66c-25.87,12.74-56.36,20.79-78.69,6.78-22.33-14.01-30.18-33.11-33.72-52.51-3.54-19.4-5.21-35.69-11.86-50.82,30.27,2.85,56.94,22.26,77.41,44.74,8.8,9.66,27.09,24.77,33.02,25.56,0,0-34.52,13.62-59.38-4.7,0,0,29.52,49.01,90.62,4.47,28.02-20.43,31.43-44.75,29.7-60.91-.15-1.13-.32-2.26-.5-3.4-5.36-33.64-34.62-53.85-68.55-46.49-4.93,1.07-7.87,1.9-10.73,1.84-.66-2.45-1.02-5.02-1.02-7.67s.32-5.01.93-7.36c.28-1.09-1.01-1.9-1.88-1.19l-7.95,6.42c-3.78-1.5-8.27-2.37-13.09-2.37s-9.31.87-13.09,2.37l-8.08-6.51c-.88-.71-2.17.11-1.88,1.2.62,2.38.95,4.88.95,7.45,0,3.95-.78,7.72-2.19,11.16v.09s4.71,2.24,10.07,5.2c5,2.82,11.84,6.97,14.2,9.83,0,0,0,0,0,0,0,0,0,0,0,0,0,0,9.43-6.59,24.21-11.12,4.59-1.05,9.66-1.68,15.09-1.48,14.2.52,17.65,9.41,17.61,14.97-.05,6.34-7.63,13.67-23.79,13.49-15.21-.17-33.23-4.89-46.06-12.87-12.83-7.98-31-16.21-40.77-17.82-12.88-2.12-23.43-.32-32.08,7.09-2.56,2.28-4.89,4.86-6.93,7.73-.14.19-.27.38-.41.58-3.28,4.77-5.82,10.34-7.43,16.77-4.71,18.74-4.98,37.64-1.37,56.44,6.73,35.1,27.76,61.74,53.88,85.13,7.96,7.13,17.31,8.89,27.54,5.56,13.54-4.41,27.03-4.51,40.56-.02,10.74,3.57,20.2,1.15,28.53-6.11,2.51-2.18,4.98-4.42,7.35-6.74,17.02-16.67,28.36-38.95,31.28-47.07,3.19-8.88.98-13.05.98-13.05-9.15,9.36-21.28,19.84-32.5,25.36Z"/>
      
    </g>
  </g>
</svg>