<?xml version="1.0" encoding="UTF-8"?>
<svg id="Layer_2" data-name="Layer 2" xmlns="http://www.w3.org/2000/svg" viewBox="0 0 351.27 351.27">
  <defs>
    <style>
      .cls-1 {
        fill: none;
      }

      .cls-2 {
        fill: #161616;
      }
    </style>
  </defs>
  <g id="Layer_1-2" data-name="Layer 1">
    <g>
      <g>
        <g>
          <path class="cls-2" d="M76.56,206.9l3.07,5.64c.43.59.92,1.14,1.5,1.61,2.21,1.83,5.1,2.99,7.95,2.65,2.05-.25,3.72-1.41,5.19-2.87.63-.63,1.21-1.31,1.76-2.01,6.03-7.75,12.06-15.49,18.09-23.24,3.83-4.92,7.68-9.88,10.86-15.22-4.2-.02-8.4-.05-12.61-.07-3.41-.02-7.16-.17-9.66-2.48-2.45-2.27-2.85-6.43-.87-9.13,1.98-2.7,6.06-3.56,8.97-1.91,1.61-6.07,7.24-10.86,13.49-11.46,1.94-.19,3.93,0,5.74.72.75.3,1.45.68,2.11,1.13-.01-3.04-.45-6.06-1.41-8.97-2.29-6.93-7.62-12.87-14.4-15.54-6.79-2.68-14.92-1.9-20.87,2.32-8.07,5.72-10.98,12-13.33,21.62,2.25-9.25-3.85-25.44-15.95-23.43-3.62.6-6.9,2.81-9.44,5.38-5.73,5.8-9.06,13.89-9.08,22.04-.02,9.32,4.04,17.94,9.26,25.83,1.37.36,2.67.98,3.81,1.81,1.76-2.22,4.91-3.23,7.63-2.46s4.87,3.28,5.22,6.09c.7-1.03,1.88-1.71,3.12-1.81,1.24-.1,2.52.38,3.38,1.28s1.3,2.19,1.16,3.43c-.17,1.43-1.11,2.74-2.41,3.35-1.13.53-2.42.54-3.66.54-2.95,0-6.04.18-9.1.11,3.76,4.85,7.5,9.77,10.48,15.03"/>
          <path class="cls-2" d="M87.67,221.79c-1.99-.14-3.9-.75-5.35-1.71,1.24,3.66,2.02,7.41,2.82,11.13.09.43.57.78,1.18.86.64.08,1.27.13,1.97.1,1.07-.06,2.18.03,2.83-.57.61-.56.75-1.67.89-2.37.55-2.8.82-5.6,1.38-8.39-1.69.75-3.73,1.09-5.72.95Z"/>
        </g>
        <g>
          <path class="cls-2" d="M192.89,175.56l-.21,25.33h-37.79l.42-27.34-.42-45.49h14.88l-.21,60.8,9.71-.63.32-12.56,13.3-.11Z"/>
          <path class="cls-2" d="M214.63,128.07l-.32,35.57.32,37.26h-14.88l.32-37.26-.32-35.57h14.88Z"/>
          <path class="cls-2" d="M225.29,200.9l.42-35.57-.32-36.31,38.21-1.79-.21,22.69-13.19.42-.11-10.13h-10.03v20.37l17.63-.74v14.36l-17.63-.42.11,27.13h-14.88Z"/>
          <path class="cls-2" d="M280.7,141.58l-13.83.53v-14.04h41.8v14.04l-13.83-.53.32,59.32h-14.78l.32-59.32Z"/>
        </g>
        <g>
          <path class="cls-2" d="M159.49,219.49l1.45-.1,1.45.1-.02-6.61h3.42l-.12,8.29.12,8.43h-3.42l.02-6.91-1.45.1-1.45-.1.02,6.91h-3.42l.12-8.43-.12-8.29h3.42l-.02,6.61Z"/>
          <path class="cls-2" d="M170.34,229.65c-1.89-2.28-2.86-5.62-2.86-8.48s1.02-5.91,2.91-8.26l4.02-.1c1.89,2.3,2.88,5.65,2.88,8.48s-1.02,5.91-2.91,8.26l-4.05.1ZM170.85,221.17c0,2.13.56,4.07,1.62,5.77.94-1.67,1.43-3.68,1.43-5.65,0-2.13-.56-4.1-1.6-5.74-.97,1.7-1.45,3.71-1.45,5.62Z"/>
          <path class="cls-2" d="M180.59,215.98l-3.17.12v-3.22h9.6v3.22l-3.17-.12.07,13.62h-3.39l.07-13.62Z"/>
          <path class="cls-2" d="M198.3,225.94l-1.5.07-1.57-.07-.58,3.66h-3.2l3.1-16.65,4.77-.19,2.93,16.84h-3.44l-.51-3.66ZM196.83,222.98l1.04.07-1.04-7.27-1.14,7.27,1.14-.07Z"/>
          <path class="cls-2" d="M206.91,212.88l-.07,8.17.07,8.55h-3.42l.07-8.55-.07-8.17h3.42Z"/>
          <path class="cls-2" d="M209.35,229.6l.07-8.46-.07-8.09,7.95-.34c.41,1.31.7,2.81.7,4.19,0,1.91-.58,3.44-2.08,4.7l2.88,8h-3.61l-1.94-6.42-.68.27.02,6.15h-3.25ZM212.5,220.34c1.72-.65,2.35-1.72,2.35-3.05,0-.63-.12-1.31-.27-1.77h-2.04l-.05,4.82Z"/>
          <path class="cls-2" d="M224.52,220.95l-.07-7.9,7.87-.36c.63,1.24,1.07,2.67,1.07,3.9,0,1.53-.63,2.71-1.65,3.68,1.19,1.16,1.94,2.67,1.94,4.29,0,2.28-1.5,3.93-4.85,5.02l-4.39.07.07-8.7ZM227.55,219.98c1.38-.61,2.47-1.41,2.47-2.71,0-.61-.17-1.24-.34-1.7h-2.08l-.05,4.41ZM229.17,221.99c-.51.24-1.04.46-1.62.68l.05,4.39c1.84-.56,2.64-1.45,2.64-2.71,0-.9-.41-1.7-1.07-2.35Z"/>
          <path class="cls-2" d="M240.83,225.94l-1.5.07-1.57-.07-.58,3.66h-3.2l3.1-16.65,4.77-.19,2.93,16.84h-3.44l-.51-3.66ZM239.35,222.98l1.04.07-1.04-7.27-1.14,7.27,1.14-.07Z"/>
          <path class="cls-2" d="M254.76,223.78l-.05,5.82h-8.67l.1-6.28-.1-10.44h3.42l-.05,13.96,2.23-.15.07-2.88,3.05-.02Z"/>
          <path class="cls-2" d="M265.08,223.78l-.05,5.82h-8.67l.1-6.28-.1-10.44h3.42l-.05,13.96,2.23-.15.07-2.88,3.05-.02Z"/>
          <path class="cls-2" d="M268.79,229.65c-1.89-2.28-2.86-5.62-2.86-8.48s1.02-5.91,2.91-8.26l4.02-.1c1.89,2.3,2.88,5.65,2.88,8.48s-1.02,5.91-2.91,8.26l-4.05.1ZM269.29,221.17c0,2.13.56,4.07,1.62,5.77.94-1.67,1.43-3.68,1.43-5.65,0-2.13-.56-4.1-1.6-5.74-.97,1.7-1.45,3.71-1.45,5.62Z"/>
          <path class="cls-2" d="M279.57,229.65c-1.89-2.28-2.86-5.62-2.86-8.48s1.02-5.91,2.91-8.26l4.02-.1c1.89,2.3,2.88,5.65,2.88,8.48s-1.02,5.91-2.91,8.26l-4.05.1ZM280.08,221.17c0,2.13.56,4.07,1.62,5.77.94-1.67,1.43-3.68,1.43-5.65,0-2.13-.56-4.1-1.6-5.74-.97,1.7-1.45,3.71-1.45,5.62Z"/>
          <path class="cls-2" d="M288.14,229.6l.15-16.67,4.17-.12,3,12.79-.19-12.72h2.96l-.15,16.69-4.14.1-3.03-12.87.22,12.79h-2.98Z"/>
          <path class="cls-2" d="M303.19,224.05l.22,2.88c1.04-.73,1.89-1.53,1.89-2.45,0-2.08-5.35-2.35-5.35-6.57,0-2.42,1.79-4,4.24-5.04l3.44-.1.02,5.06-2.88.05-.05-2.47c-.99.41-1.67,1.19-1.67,2.08,0,2.23,5.33,2.52,5.33,6.57,0,2.25-1.67,3.8-4.24,5.45l-3.66.15-.27-5.52,2.98-.1Z"/>
        </g>
        <path class="cls-2" d="M219.63,108.74c13.56-.55,36.13-1.48,49.54-2.05,16.12-.07,42.96-.17,59.08-.31,0,0-.01,2.78-.01,2.78l-.69,136.39v2.02s-2.03.05-2.03.05c-28.7.73-57.52,1.35-86.24,1.91-12.44-.19-31.73-.73-44.23-1.01-10.55-.5-26.56.49-37.26.76-2.69.08-6.65.3-9.32.14-9.54-.26-25.42-.81-34.96-1.09-22.48.13-45.1.44-67.57.19,0,0-18.67-.92-18.67-.92l-2.08-.1.09-2.07c.37-9.31,1.65-37.18,1.99-45.99-.1-2.69-.32-17.92-.41-20.95-.13-6.05-.72-36.48-.83-41.89.06-7.11.21-21.16.27-28.33,0,0,3.14-.05,3.14-.05l47.56-.8c16.7-.3,55.25-1.2,71.37-.92,16.1-.46,54.7,1.45,71.27,2.25h0ZM219.63,113.71c-16.83-.72-55.01-2.42-71.28-1.89-15.84-.23-54.89,1.08-71.25,1.49,0,0-47.51,1.39-47.51,1.39l3.17-3.19c-1.05,27.18-.53,60.78-.55,88.02-.54,8.76-2.24,36.95-2.81,46.11,0,0-1.99-2.17-1.99-2.17,6.77.16,21.43.55,27.9.24,20.07-.31,40.51-.88,60.57-.87,2.93.05,19.95.6,23.27.67,1.69.07,10.12.31,11.63.37,1.62.05,5.33-.19,6.98-.19,30.86-1.84,62.35.76,93.17.49,24.83-.3,49.67-.53,74.51-.7l-2.03,2.07-.69-136.39,2.76,2.76c-13.26-.08-39.66-.26-52.9-.26-1.1,0-2.2-.03-3.31,0l-3.31.13c-11.75.49-34.32,1.41-46.34,1.91h0Z"/>
      </g>
      
    </g>
  </g>
</svg>