<?xml version="1.0" encoding="UTF-8"?>
<svg id="Layer_2" data-name="Layer 2" xmlns="http://www.w3.org/2000/svg" viewBox="0 0 351.27 351.27">
  <defs>
    <style>
      .cls-1 {
        fill: none;
      }

      .cls-2 {
        fill: #161616;
      }
    </style>
  </defs>
  <g id="Layer_1-2" data-name="Layer 1">
    <g>
      <g>
        <path class="cls-2" d="M217.72,180.53h-21.23c-11.73,0-21.23-9.51-21.23-21.23s-9.51-21.23-21.23-21.23H48.23v-42.46h105.75s.02,0,.03,0,.02,0,.03,0c11.73,0,21.23,9.51,21.23,21.23s9.51,21.23,21.23,21.23h21.23v42.46Z"/>
        <path class="cls-2" d="M132.73,222.99h21.23c11.73,0,21.23,9.51,21.23,21.23s9.51,21.23,21.23,21.23c0,0,.02,0,.03,0s.02,0,.03,0h105.75v-42.46h-105.81c-11.73,0-21.23-9.51-21.23-21.23s-9.51-21.23-21.23-21.23h-21.23v42.46Z"/>
      </g>
      
    </g>
  </g>
</svg>