<?xml version="1.0" encoding="UTF-8"?>
<svg id="Layer_2" data-name="Layer 2" xmlns="http://www.w3.org/2000/svg" viewBox="0 0 351.27 351.27">
  <defs>
    <style>
      .cls-1 {
        fill: none;
      }

      .cls-2 {
        fill: #161616;
      }
    </style>
  </defs>
  <g id="Layer_1-2" data-name="Layer 1">
    <g>
      <path class="cls-2" d="M280.16,86.01v158.1c-10.81,0-21.37,1.09-31.56,3.15-5.85,1.18-11.57,2.69-17.16,4.5-2.45.79-4.87,1.64-7.27,2.55-4.19,1.59-8.29,3.34-12.29,5.26-5.51,2.64-10.84,5.59-15.97,8.83-3.51,2.21-6.92,4.56-10.23,7.03-2.74,2.04-5.41,4.18-8.01,6.4-2.61-2.23-5.29-4.37-8.05-6.42-3.3-2.47-6.7-4.8-10.2-7.01-5.13-3.24-10.46-6.19-15.97-8.83-4.01-1.92-8.11-3.68-12.29-5.26-2.4-.91-4.82-1.76-7.27-2.55-5.68-1.84-11.5-3.37-17.45-4.56-10.11-2.03-20.57-3.1-31.27-3.1v-31.74c10.71,0,21.17,1.06,31.27,3.1,5.95,1.19,11.77,2.71,17.45,4.56,2.48.8,4.94,1.66,7.37,2.58,4.15,1.58,8.22,3.32,12.2,5.23,5.57,2.67,10.95,5.66,16.13,8.94,3.44,2.17,6.79,4.48,10.04,6.9,2.75,2.05,5.44,4.2,8.05,6.42,2.6-2.22,5.27-4.35,8.01-6.4,3.26-2.43,6.62-4.75,10.07-6.93,5.18-3.28,10.57-6.27,16.13-8.94,3.98-1.9,8.05-3.65,12.2-5.23,2.43-.92,4.88-1.79,7.37-2.58,5.59-1.81,11.32-3.32,17.16-4.5v-31.45c-8.41,1.7-16.57,4.07-24.43,7.05-4.19,1.59-8.29,3.34-12.29,5.26-5.51,2.64-10.84,5.59-15.97,8.83-3.51,2.21-6.92,4.56-10.23,7.03-2.74,2.04-5.41,4.18-8.01,6.4-2.61-2.23-5.29-4.37-8.05-6.42-3.3-2.47-6.7-4.8-10.2-7.01-5.13-3.24-10.46-6.19-15.97-8.83-4.01-1.92-8.11-3.68-12.29-5.26-7.95-3.01-16.22-5.4-24.72-7.11-10.11-2.03-20.57-3.1-31.27-3.1v-94.92c10.71,0,21.17,1.06,31.27,3.1,23.33,4.68,44.8,14.49,63.18,28.21v31.73c-3.3-2.47-6.7-4.8-10.2-7.01-15.96-10.07-33.85-17.37-52.99-21.2v31.45c12.98,2.6,25.39,6.8,37.02,12.38,5.57,2.67,10.95,5.65,16.13,8.93,3.44,2.17,6.79,4.48,10.04,6.9,2.75,2.05,5.44,4.2,8.05,6.42,2.6-2.22,5.27-4.35,8.01-6.4,3.26-2.43,6.62-4.75,10.07-6.93,5.18-3.28,10.57-6.27,16.13-8.93,11.53-5.54,23.85-9.71,36.73-12.32v-31.45c-19.03,3.85-36.82,11.13-52.7,21.15-3.51,2.21-6.92,4.56-10.23,7.03v-31.73c18.32-13.68,39.7-23.48,62.93-28.18,10.2-2.07,20.76-3.15,31.56-3.15Z"/>
      
    </g>
  </g>
</svg>