<?xml version="1.0" encoding="UTF-8"?>
<svg id="Layer_2" data-name="Layer 2" xmlns="http://www.w3.org/2000/svg" viewBox="0 0 351.27 351.27">
  <defs>
    <style>
      .cls-1 {
        fill: none;
      }

      .cls-2 {
        fill: #161616;
      }
    </style>
  </defs>
  <g id="Layer_1-2" data-name="Layer 1">
    <g>
      <g>
        <path class="cls-2" d="M142.83,245.25c-6.4-1.46-12.81-3.69-18.93-6.93,2.19-10.24,6.25-32.19,5.3-51.11,0,0-8.68,10.44-12.43,47-3.55-2.05-10.02-5.75-16.97-9.55-3.84-17.03-5.23-39.52-5.23-39.52-2.29,6.86-2.73,24.55-2.77,35.24-5.93-3.09-11.53-5.82-15.31-7.23-5.51-27.76,6.1-112.04,6.1-112.04,5.29-2.16,12.72-4.35,21.96-5.01,0,0-1.03,49.61,7.53,77.62,0,0,8.67-50.25,24.29-73.7,3.99,1.23,8.13,2.78,12.42,4.69,1.76,16.91,5.69,70.86-5.95,140.54Z"/>
        <path class="cls-2" d="M329.33,167.79c-9.66,9.64-28.29,11.72-28.29,11.72-.21,5.33-.79,10.31-1.39,14.19-.07.05-.15.11-.22.16-3.86,2.92-8.15,5.97-12.89,9.11.75-6.34,2.29-16.79,1.66-23.55-3.81-.22-6.81-.43-10.64-.97-.05-3.63-.62-8.62-1.66-12.69,8.2,1.51,15.54,2.6,25.26,2.88,7.28.21,19.57.06,28.16-.86Z"/>
        <path class="cls-2" d="M225.34,151.03c-4.72-2.26-9.49-4.8-14.42-7.63-2.49,11.49-6.36,24.78-10.82,35.06-6.07,13.94-12.45,51.52-15,67.64,9.18-1.41,16.28-3.42,19.64-4.48l2.4-28.47s1.82-.52,6.75,0c0,0,1.82,11.34,4.92,23.56,5.88-2.18,11.47-4.41,16.81-6.68-7.11-16.25-14.28-42.48-10.27-79ZM213.89,199.4h-4.93s3.89-18.68,4.93-22.57c0,0-2.08,18.68,0,22.57Z"/>
        <path class="cls-2" d="M202.62,157.8c1.07-11.19-4.43-21.99-13.79-28.22-5.35-3.56-10.98-7.43-16.97-11.63-3.84-2.68-7.59-5.07-11.26-7.19,3.36,66.76-5.31,119.26-8.57,136.1,5.21.65,10.33.86,15.24.78,3.04-14.79,8.23-42.15,8.23-56.81,0,0,23.34-4.64,26.97-31.76.06-.43.11-.85.15-1.28ZM177.14,170.87s.6-19.72,0-28.01c0,0,21.1,12.19,0,28.01Z"/>
        <path class="cls-2" d="M273.29,193.3s0,15.73-9.49,23.23c0,0-.02.02-.02.02-1.82.98-3.69,1.96-5.6,2.94-1.78.57-3.79.89-6.02.92-21.14.26-20.89-28.27-20.89-28.27,0,0,.09-16.82,7.78-23.87,5.57-5.1,11.32-6.96,17.06-6.11.02,0,.04,0,.05,0,1.06.27,2.15.52,3.23.76.02,0,.03,0,.05,0,7.09,2.22,13.85,9.55,13.85,22.14l-12.69.09s-.09-10.09-8.32-9.59c-6,.37-7.78,8.69-7.91,15.61-.13,6.92,2.33,14.53,7.91,14.01,5.58-.51,7.39-4.75,8.17-11.89h12.84Z"/>
        <path class="cls-2" d="M259.39,162.93c-1.08-.24-2.17-.49-3.23-.76.65.1,1.3.23,1.95.4.43.11.86.23,1.28.37Z"/>
        <path class="cls-2" d="M263.78,216.55c-1.59,1.25-3.44,2.27-5.6,2.94,1.91-.98,3.78-1.96,5.6-2.94Z"/>
        <path class="cls-2" d="M70.4,276.97c-4.46,1.36-9.17-1.16-10.52-5.62-10.39-34.11-15.84-74.68-12.45-121.87,1.75-24.44,4.94-44.4,7.04-55.74,1.03-5.58,6.76-9.22,12.59-8.02h0c5.51,1.13,9.09,6.17,8.13,11.44-4.87,26.61-16.18,104.67.9,169.61,1.15,4.38-1.36,8.88-5.69,10.2h0Z"/>
      </g>
      
    </g>
  </g>
</svg>