<?xml version="1.0" encoding="UTF-8"?>
<svg id="Layer_2" data-name="Layer 2" xmlns="http://www.w3.org/2000/svg" viewBox="0 0 351.27 351.27">
  <defs>
    <style>
      .cls-1 {
        fill: none;
      }

      .cls-2 {
        fill: #161616;
      }
    </style>
  </defs>
  <g id="Layer_1-2" data-name="Layer 1">
    <g>
      <g>
        <path class="cls-2" d="M261.75,240.15c-36.23,0-57.41-33.42-57.41-69.46s20.99-56.95,50.72-56.95c19.14,0,38.27,11.58,45.89,30.81l2.23-.56-.74-24.65c-9.66-6.54-28.8-9.15-42.54-9.15-45.52,0-75.24,31.18-75.24,68.9,0,41.82,27.31,64.98,71.71,64.98,22.67,0,36.78-4.48,46.63-8.96l2.97-26.7-2.42-.37c-6.69,19.42-20.99,32.12-41.8,32.12Z"/>
        <path class="cls-2" d="M97.98,110.63c-41.8-1.26-57.73,9.52-66.62,14.25l-.43,26.86,2.44.14c4.82-19.97,18.4-33.28,38.93-36.72,7.95-1.33,12.54-1.46,19.8-1.05,43.72,2.47,60.3,31,60.3,69.27s-16.54,55.83-46.45,55.83h-10.03c-3.7,0-6.29-.65-8.11-1.87-3.16-3.11-3.96-8.92-3.96-19.4v-53.31s0,0,0,0v-33.19l-1.91-1.54-25.21,11.13v2.69c4.78,2.11,7.64,4.03,7.64,15.36v16.61h0l-.21,42.8c0,9.2-.61,14.72-2.96,17.95-1.1,1.44-2.55,2.43-4.47,3.07v2.69h50.53c40.87,0,67.25-27.45,67.07-67.96-.19-27.45-22.86-62-76.34-63.61Z"/>
        <path class="cls-2" d="M236.54,177.47c13.63,3.64,16.56,6.58,20.18,20.28,3.62-13.7,6.55-16.65,20.18-20.28-13.63-3.63-16.56-6.58-20.18-20.28-3.62,13.7-6.55,16.65-20.18,20.28Z"/>
      </g>
      
    </g>
  </g>
</svg>