<?xml version="1.0" encoding="UTF-8"?>
<svg id="Layer_2" data-name="Layer 2" xmlns="http://www.w3.org/2000/svg" viewBox="0 0 351.27 351.27">
  <defs>
    <style>
      .cls-1 {
        fill: none;
      }

      .cls-2 {
        fill: #161616;
      }
    </style>
  </defs>
  <g id="Layer_1-2" data-name="Layer 1">
    <g>
      
      <g>
        <path class="cls-2" d="M193.22,165.19c4.46-.61,7.61-4.67,7.09-9.15l-5.65-47.94c-.66-6.8-4.02-10.6-10.72-10.12h0c-5.41.39-8.2,4.26-10.82,9.21l-16.19,32.15-19.11-63.95c-2.46-5.76-8.53-9.11-14.71-8.12l-29.45,4.68c-4.95.79-8.47,5.23-8.11,10.23h0c.4,5.69,5.61,9.79,11.23,8.85l19.52-3.14-4.81,58.34c-.61,7.08,5.83,12.71,12.76,11.17h0c4.39-.98,7.67-4.65,8.16-9.13l1.52-19.44,11.79,37.67c1.98,5,7.45,7.66,12.61,6.12h0c3.11-.93,5.01-3.31,6.75-6.31l16.18-31.59,2.69,23.23c.53,4.59,4.73,7.85,9.31,7.23h0Z"/>
        <path class="cls-2" d="M91.68,98.12h0c-4.11.87-7.21,4.25-7.71,8.42l-5.34,42.37c-.84,6.91,5.59,12.47,12.31,10.64l1.53-.42c3.97-1.08,6.84-4.52,7.2-8.61l3.81-41.95c.57-6.56-5.35-11.81-11.79-10.45Z"/>
        <path class="cls-2" d="M193.75,286.39c1.16-5.17-1.99-10.32-7.12-11.63l-39.02-10.79c-12.57-2.95-17.92-8.39-21.14-21.1l-17.22-69.37c-1.52-6.13-7.91-9.69-13.92-7.77l-20.35,7.14c-4.05,1.3-6.98,4.83-7.5,9.06l-13.32,65.32c-.64,5.21,3.03,9.97,8.24,10.67h0c5.26.71,10.1-3,10.77-8.27l5.9-27.02,22.26-.36,7.62,29.71c2.45,10.68,6.99,22.2,20.87,26.66l51.75,15.04c5.4,1.5,10.94-1.83,12.17-7.29h0ZM81.04,196.27c.03-.6.07-1.21.1-1.79.18-3.33,2.52-6.14,5.76-6.94h0c4.12-1.01,8.26,1.56,9.19,5.7l.4,1.79c1.06,4.73-2.54,9.23-7.39,9.23h-.5c-4.35,0-7.8-3.65-7.56-7.99Z"/>
        <path class="cls-2" d="M200.51,253.53c1.07-5.5-2.29-10.9-7.7-12.36l-29.27-8.19c-6.52-1.19-8-7.57-9.94-14.47l-2.96-12.81,17.56-5.06-1.77,12.43c-.58,6.69,3.58,8.64,8.65,9.57h0c5.81.82,11.07-2.64,12.16-9.14l4.07-26.18c.83-8.29-7.06-14.74-15.02-12.28l-37.54,10.72c-7.8,2.41-12.37,10.49-10.41,18.42l8.12,32.89c1.54,6.23,7.1,13.09,13.35,14.52l37.45,10.22c5.98,1.59,12.06-2.22,13.24-8.29h0Z"/>
        <path class="cls-2" d="M254.6,161.21h0c-5.35.82-8.88,6-7.68,11.28l3.69,20.63-41.04-1.46c-5.61-.2-10.55,3.69-11.66,9.2h0c-1.33,6.58,3.24,12.88,9.91,13.67l7.23.85-14.13,72.1c-1.11,5.64,2.32,11.18,7.86,12.71h0c6.13,1.69,12.41-2.17,13.68-8.4l14.84-73.63,18.59,1.52c10.44.85,18.66-8.77,16.19-18.95l-7-32.5c-1.14-4.7-5.69-7.75-10.48-7.02Z"/>
        <path class="cls-2" d="M235.04,173.2l-3.91-30.78c8.64-1.71,17.75-6.07,21.83-9.68,5.57-4.93,9.68-12.34,10.23-22.11.93-16.63-4.25-23.38-4.25-23.38-5.03-8.32-8.88-10.76-15.35-14.44-6.47-3.68-13.65-5.53-21.09-5.7-4.94-.11-23.28,1.98-34.03,3.01-4.02.38-7.57,3.02-8.83,6.86-2.25,6.88,3.33,13.79,10.53,13.03,11.57-1.22,25.71-2.76,28.55-2.94,7.72-.47,14.02,2.61,19.39,7.75,1.67,1.6,3.15,3.78,3.85,5.97,2.54,7.98,1.06,13.16-4.78,18.39-2.21,1.97-6.03,3.01-8.99,3.23-.52-3.54-1.52-8.83-2-12.29-.54-3.95-1.04-7.13-3.71-10.26-1.66-1.95-4.18-3.5-9.22-2.68-5.5,1.03-7.07,5.29-7,10.05.07,5.29.83,10.57,1.3,15.85l6.39,52.75c.72,6,6.29,10.19,12.26,9.22h0c5.66-.92,9.57-6.15,8.85-11.83Z"/>
      </g>
    </g>
  </g>
</svg>